<mxfile host="Electron" modified="2023-12-20T23:31:15.014Z" agent="Mozilla/5.0 (Macintosh; Intel Mac OS X 10_15_7) AppleWebKit/537.36 (KHTML, like Gecko) draw.io/22.1.11 Chrome/114.0.5735.289 Electron/25.9.8 Safari/537.36" etag="GArGfMkGo5Y1tGGQl95m" version="22.1.11" type="device">
  <diagram name="Page-1" id="QCiqpLLjiHGwgku1uWEE">
    <mxGraphModel dx="954" dy="613" grid="1" gridSize="10" guides="1" tooltips="1" connect="1" arrows="1" fold="1" page="1" pageScale="1" pageWidth="850" pageHeight="1100" math="0" shadow="0">
      <root>
        <mxCell id="0" />
        <mxCell id="1" parent="0" />
        <mxCell id="vcEVfHxHfkmR4wFx27v9-98" value="" style="rounded=1;whiteSpace=wrap;html=1;sketch=1;hachureGap=4;jiggle=2;curveFitting=1;fontFamily=Architects Daughter;fontSource=https%3A%2F%2Ffonts.googleapis.com%2Fcss%3Ffamily%3DArchitects%2BDaughter;fontSize=20;" vertex="1" parent="1">
          <mxGeometry x="310" y="691.93" width="510" height="598.07" as="geometry" />
        </mxCell>
        <mxCell id="vcEVfHxHfkmR4wFx27v9-97" value="" style="rounded=1;whiteSpace=wrap;html=1;sketch=1;hachureGap=4;jiggle=2;curveFitting=1;fontFamily=Architects Daughter;fontSource=https%3A%2F%2Ffonts.googleapis.com%2Fcss%3Ffamily%3DArchitects%2BDaughter;fontSize=20;" vertex="1" parent="1">
          <mxGeometry x="970" y="683.35" width="120" height="481.25" as="geometry" />
        </mxCell>
        <mxCell id="vcEVfHxHfkmR4wFx27v9-1" value="&lt;font style=&quot;font-size: 20px;&quot;&gt;Uber&lt;/font&gt;" style="text;html=1;strokeColor=#9673a6;fillColor=#e1d5e7;align=center;verticalAlign=middle;whiteSpace=wrap;rounded=1;sketch=1;curveFitting=1;jiggle=2;" vertex="1" parent="1">
          <mxGeometry x="120" y="50" width="60" height="30" as="geometry" />
        </mxCell>
        <mxCell id="vcEVfHxHfkmR4wFx27v9-2" value="&lt;b&gt;Requirements&lt;/b&gt;&lt;br&gt;&lt;div style=&quot;text-align: left;&quot;&gt;&lt;span style=&quot;background-color: initial;&quot;&gt;&lt;i&gt;Functional&lt;/i&gt;&lt;/span&gt;&lt;/div&gt;&lt;div style=&quot;text-align: left;&quot;&gt;&lt;span style=&quot;background-color: initial;&quot;&gt;- User see home screen with cabs in the vicinity&amp;nbsp; /Home&lt;br&gt;&lt;/span&gt;&lt;/div&gt;&lt;div style=&quot;text-align: left;&quot;&gt;&lt;span style=&quot;background-color: initial;&quot;&gt;- Request a ride /request_ride&lt;/span&gt;&lt;/div&gt;&lt;div style=&quot;text-align: left;&quot;&gt;&lt;span style=&quot;background-color: initial;&quot;&gt;- Matched to a driver once Accepted from list /match_driver&lt;/span&gt;&lt;/div&gt;&lt;div style=&quot;text-align: left;&quot;&gt;&lt;span style=&quot;background-color: initial;&quot;&gt;- Begin ride /begin_ride&lt;/span&gt;&lt;/div&gt;&lt;div style=&quot;text-align: left;&quot;&gt;&lt;span style=&quot;background-color: initial;&quot;&gt;- Pay when ride ends /pay&lt;/span&gt;&lt;/div&gt;&lt;div style=&quot;text-align: left;&quot;&gt;&lt;span style=&quot;background-color: initial;&quot;&gt;&lt;br&gt;&lt;/span&gt;&lt;/div&gt;&lt;div style=&quot;text-align: left;&quot;&gt;&lt;span style=&quot;background-color: initial;&quot;&gt;&lt;i&gt;Non-functional&lt;/i&gt;&lt;/span&gt;&lt;/div&gt;&lt;div style=&quot;text-align: left;&quot;&gt;&lt;span style=&quot;background-color: initial;&quot;&gt;&lt;i&gt;- &lt;/i&gt;Global&lt;/span&gt;&lt;/div&gt;&lt;div style=&quot;text-align: left;&quot;&gt;&lt;span style=&quot;background-color: initial;&quot;&gt;- Low latency&lt;/span&gt;&lt;/div&gt;&lt;div style=&quot;text-align: left;&quot;&gt;&lt;span style=&quot;background-color: initial;&quot;&gt;- Scalable&lt;/span&gt;&lt;/div&gt;&lt;div style=&quot;text-align: left;&quot;&gt;&lt;span style=&quot;background-color: initial;&quot;&gt;- Fraud detection/secure&lt;/span&gt;&lt;/div&gt;&lt;div style=&quot;text-align: left;&quot;&gt;&lt;span style=&quot;background-color: initial;&quot;&gt;- Availability&lt;/span&gt;&lt;/div&gt;&lt;div style=&quot;text-align: left;&quot;&gt;&lt;span style=&quot;background-color: initial;&quot;&gt;- Consistent&lt;/span&gt;&lt;/div&gt;" style="text;html=1;strokeColor=#82b366;fillColor=#d5e8d4;align=center;verticalAlign=middle;whiteSpace=wrap;rounded=0;fontSize=20;fontFamily=Times New Roman;" vertex="1" parent="1">
          <mxGeometry x="40" y="110" width="300" height="420" as="geometry" />
        </mxCell>
        <mxCell id="vcEVfHxHfkmR4wFx27v9-3" value="" style="ellipse;shape=cloud;whiteSpace=wrap;html=1;rounded=1;sketch=1;hachureGap=4;jiggle=2;curveFitting=1;fontFamily=Architects Daughter;fontSource=https%3A%2F%2Ffonts.googleapis.com%2Fcss%3Ffamily%3DArchitects%2BDaughter;fontSize=20;" vertex="1" parent="1">
          <mxGeometry x="510" y="91.16" width="620" height="450" as="geometry" />
        </mxCell>
        <mxCell id="vcEVfHxHfkmR4wFx27v9-5" value="" style="shape=stencil(lVnbbhw3DP2afRV0l/icpv8RIE69qGsHjtM2fx+qC02GRztnasAP6xmekUgeUiR1SR++PX76+nCJ/tvb68ufD/9cP789XtJvlxivz48Pr9c3/XVJHy/pw5eX14c/Xl++P3++/f/105Acv/56+Xt84d8bLhSnkPHnf9yeeJfafw9+v8k/XZ+tfCpGPrgkVL5XIx9dqES+Oi9GPjnP5PX7ychn/n3dvzfyxeVO5LMTa5/qhH0/u2rt011JVD6DPb0LfEOgQAiuM49lFwGQXCkUEKzKgySe62B9pl5snES5WUB3kQH0e8ECxLVMAGp1q7TyNIZjgNK+WKWVqI0BlJfWccq8xADKVFihUmpHcQF06M6TFZKGFsSOp45LZQFEV9kKalbrOP1EJH7I0ZVsAaoDiYfcXLArZO+EUKNEtFJOTkhGKg110DU9iYeaJje3lOGdJ1uqMv26AZQs8RjQ8sxBG6DQmG7ikuVS6dRxXTdgV6iBRlwvTqzj1AxsS139av1Q64zy+wDBRPbLbkeAbFN9C67yFbx1nBqaKt3Rca26TqjRNS/ZABqeYTpo5rOJrAeaKtVxYh3XM00CPWIi6zzN6AYge/c2fX8EgMynhq4kphUQrQ4SZpQf6QBFiUR6ZA0rWbNKco1tqWJMS3aNWam7DjqUedLfBaiKxZpV6vT9fUDCSkMaTTP6utp4EJ5bg/cYoyLT+feXECSTPqFadww5BXRyBKkVIYIUIMxM0UlaAKRgUnI267mdHY7IUfuyxEmQlkVrtqewsEk4/fzMdHtHsDTgscQaruZRjUEq88nhkbI4IrAgLVgLKIAdvH0rnXcEZ0e7xlyVdwEy1pVjS8RKGnNx8XRgAMFkeWLWQbXFrJlE9WDOEkGVhVzHFmV8ggV1XRINp/dIZWuMEnqLd91S4zRG2+LqkzSQZx7aA0hRpodQXgKCpbK+Fap7R/Cgzkt2LXyF9wGaLEp3GqNNX4PnGm1HtUBCV9d5ZtwHFCxdxxFA+N30JAdAnp3UfUDE/nUUA0wHv3g6zh7hqMDHTBaolepS646SiehQt/Z2X5QxpT1mgVH2kcSkVoqwAu+b1A9wBI3SlXGpYOobxTEDVKTGKL8ZNdoC4AV+W7LGaCEYNbRZtB1BFVqUtaWwHG0QM2uec4ldo8UKIN1xgi2FaYb7XFrqxNEsMnpH5JK2o0L8oC11gv516zfvAwL24NpSBzYW2PrhXdMeSObLfo4lN0Cm8ZC0M7NmzYE27cnjPGeMNojSseIhN4YnDJBwNjjGMySAol8Ano5nQpvD3v2IiY83ob5XrQJha9Cy0vphjMnYoYjZfszh2HQGs9IY9BH5jPPiwCvvhB3QGFWSeI7LPLfSwydg0XA2bHXyvmkuxvLZuBiLw7N5NOp7Mu/G8R4fpy+nGp/WK9shhullwNIO87sGjycmv8rweITzmxKPGe7kIgYHep7mkqUz4pPhiB2wnzXVQZAI7p0ZsuBw3vPx6CTgTpxVyTgL4uLK74KmYbsJS3nJldX4zCjPbDluU9A6NCGUOQ/8n0x4/43fibz++HW9+OX69HS7ndy/x+tIfXS7ykwffwI=);lineShape=1;strokeColor=default;rounded=1;sketch=1;hachureGap=4;jiggle=2;curveFitting=1;fontFamily=Architects Daughter;fontSource=https%3A%2F%2Ffonts.googleapis.com%2Fcss%3Ffamily%3DArchitects%2BDaughter;fontSize=20;" vertex="1" parent="1">
          <mxGeometry x="471.6297410556874" y="354.7869235675131" width="17.02848725292597" height="328.5661263717808" as="geometry" />
        </mxCell>
        <mxCell id="vcEVfHxHfkmR4wFx27v9-6" value="" style="shape=stencil(lVjbclshDPwav2oAcX1O0//ITJzaUzfOOOnt7yvq4QTE8dp+80ULQlqkFRt+eN89vW03zrx/nI7ft7/3zx+7DX/ZOLd/3W1P+w/5tOHHDT+8HE/bb6fjz9fn8/e3p2pZP/04/qor/DnjrCHrKsqZv+dfDLny/4evZ/vD/rWzL1TiYG6pWGSe/WDO5BwyT+PqnnKE5mYwj827C+YxDObyA8Ojjr5bRzlftreWzBhKG5uD6wAmLgNAomkRIOoTyIkNOLEks4wusSUP0usCRQVI5MJlABvKPKaMySJAJKdyXFrcVgHeUsoDIHhKIG8+EY8uRSG5vwwIwuExrDGQBWENsf29ABbmrgPkHqQBkBhSNbKmdkqUQZRiojDukCXTgEtJwjqSL3uKgN4ptrwugEQRhDXJBRrzUKS2gB0y60wXRwGwVRxgdaM9BVRfDPkxSkUuUAIAbn8vALkP4NAlTDtkMuDQsl5gDYjgAlljyIzcKFLIUN0T9k2AhE5ddCWrS6AdUluvAxQUpolMFYDC5IlV4/mMwzpCuBPv2sLo3lYWBq/TT6Jo7wlTzrrQFFw3BJAml1CqxSU7AQLKnJTG6QweccNSmMjkkQSQlj8BGO0QyEwuMTpDXGEfIxGTyU0AD+7cpwN9WJF2mMRDuSI25mJZYJerLk07ZASQQ087QO0mYZ2qQEGJ85M4vHZHea0MoMxJU5vvKMqcadW3DxPqKaVphR4AzrB6R5Hsux8QJzLJEqC65jDVmQwFjbR+fUeltQJuiLgIKqxS0QH7Um4XrG/VSG74JrY7MQDlxiS/JfcMXIpLJ+8FDXApOq3iJG4JRClkrderKAMuVWWrdKLIPkDvYDQ1qrAEZxBx7MYoVemKAKyrcRXHAMC56c5efoOywU4PiTUMaKpZuNmPECBKMlYpLtUhBY1ysXXZfgzCs5/KgwxaSImmtUkOpaG1zH5UBOtPI02dRQFVpzHuyrA7C2nY3kyj/W2TutGnxe8Ay1hx2yuD0RoJv2FMchu/kBjd0swVZ1QhNXB8tlq5iHdonidbtDkazldWB757XdNxtw8Up9WBeWw5v82ZpG8gPmpudfW2QIrc06ujNC2Txm0kuPcV7rq9fPh88nvZHw7nF8P+f/1EKD+dnxf58R8=);lineShape=1;strokeColor=default;rounded=1;sketch=1;hachureGap=4;jiggle=2;curveFitting=1;fontFamily=Architects Daughter;fontSource=https%3A%2F%2Ffonts.googleapis.com%2Fcss%3Ffamily%3DArchitects%2BDaughter;fontSize=20;" vertex="1" parent="1">
          <mxGeometry x="553.8679306811259" y="328.8761784442929" width="22.36701864568522" height="393.4439404416812" as="geometry" />
        </mxCell>
        <mxCell id="vcEVfHxHfkmR4wFx27v9-7" value="" style="shape=stencil(nVnbcls3DPwavWJ4A0k8O+l/eCZOralrZxynbf4+YDWUBfCclZU3W8KKJIBdAOQh331/vP/2cEjh+9vry18P/x6/vD0e8qdDSsfnx4fX45v+dcifD/nu68vrw5+vLz+ev5z+/3Y/LMdff7/8M37hvxOOqZcBSuHn6YNAqf3/wR8n86fjszVnYx4pQvNmzRP1iMxrM+aFEkPzZMwrRUHmYjfT53Kb5o1it0eNVOu+vRDb3USmAH4/ZkrVAjo1sH/9OjpvJqoAkDJ1sYAKj5zDdOAE6Cc1A0CjYJ2UCxWwQtGIWi/ljjNIE8wCCg4DN2Kb0bqmpH1A1TgEC2gkYIXavZc4UAOAdg7TGZApo9Rr0ydnwJmnm4AeqdhcYuzWzpSj5U6gjFbQ3LSRrokK4LJEatkCCmXAZikUrJcq5rNUCo7/nQLakqaGdWsV6iC9RRXCpkbT5ANeEvHp3fKMzB7ASV5jSh0Cuo30SBaQ3goQy4fWSZBbFWC31AP2kszfOwMSMRKyEChYv3as9FsIhqVkC9FuXuMc/w8jNDw4GN3mh4QZnj0AW81XXgkg9shAGz1JeIXuS7rkmWJ7gGKlQ5nbgJuUdmKlQxgWiZWnSvWIpKP5yqiAhlaoJO4MjTIKXPVqpgCkyAqoboWOvaQA5yWBLFJAKR7Q0BnYS/hIR3SGMsvaBUCQEqjYyQJAZ0gULYEuOLWNCEsgBBJCGcmLmwSsMEi/ADoGxGVLFWi4AsLiV8bFt7AHoOKrh07LGTIqjVr9ly0lFOq4ka4RFa7sW8VrAO0kw01bYuJ406ErpSVdC1aBusSBkTDVRclwaoye5qbk00OvyYfSW+MgNxFIOcpuTrnG0ejb17EEIoQscoyFRgkhS27ABrnP2v9BsRwcXdyE5Ph3AMkRomPZUL643GhwYFRAW6ocmu6HCrgt1fkTe5F2/e5IYCz4Xvq0F0CkTr7fVV1AM6zmN7szZNy+lsWtCQ6MQ5jWngx1TGWJQ8B1tPjB/VpfuQJw67oBwN3xBgA34BsA3OMPgA3clTFiAG4bVMr8+qOjUPH3V2PYwis4rRzjHF4h2tQYAyMuo7yOpFi+ixvcZfptTwRcgajnfmVPZvwcXmGke/VDby2w7vZMzVK0JuilHvwUVANcodWpQhcXKOgMLfm6y4yvmZrvHThPHdm7l3K6xGGOats3X92X3dJnN7ENSD6XCsMLlFJ9D1fiZMj2/aD4S9Tc563nNiD5XMpnSm3fcbKfIHKAc9b7JevFpWgDnI7ZbykleOi+zDQd9iZlTp4XF8cRXW3MPLu8mAZkCH6ewW1GmE32x27Vg48wVvngnYNfBJYLFvzeEGb6TnP8mrFsRs3hZjI7c3QrEXzxCLA1il6y1BxdV/nyGmaabvPEDyK4hc++N71mLvWGzRTfouGjLhTHjmSvajhMyxsVToLbH8ywuf7x/jb39fj0dHrau/zev+XpR6d3wPz5Fw==);lineShape=1;strokeColor=default;rounded=1;sketch=1;hachureGap=4;jiggle=2;curveFitting=1;fontFamily=Architects Daughter;fontSource=https%3A%2F%2Ffonts.googleapis.com%2Fcss%3Ffamily%3DArchitects%2BDaughter;fontSize=20;strokeWidth=1;" vertex="1" parent="1">
          <mxGeometry x="627.8549757554781" y="308.8683530593554" width="39.14496671760776" height="411.5568069865568" as="geometry" />
        </mxCell>
        <mxCell id="vcEVfHxHfkmR4wFx27v9-8" value="" style="shape=stencil(lVjbchoxDP2afdXYlq/PafofmQkpTClkCL39feUyBluGE3iDXZ217jrywk8f65f31eLMx/Gw/776vXk9rhf+sji32a1Xh81Rfi38vPDT2/6w+nbY/9y9nv6/v1TJ+uvH/lf9wp8TzlPMFeTM39MDQy79f/D1JL7d7EZxO4hbYovEQxjEmWyE4uPXPRWDxP2oeyL2j+huKABtAlklL18A6kRyZpQvxHxbPpMZ5auGQH9Rt5TRm4Z8AYBAPDqIIyVgsUTTjfHy3J5cB2QKow2+UAL5UxUYVQqRrANBC83EBogOAoInO6oUEyUQBvmeyrrkqICkTkafkBIFoFKK5Ee3ZksBRLq+5hEglZABQLyURkCiDFIj51YqDVAMMbBBXsfR6OJgtclrZXTxZNAJ3Ew8AyR/gQ3y2o1eKrGl43WAxEHZkPAJ57ieAbnF/jogk/caEEHylTIZXSiCiquAqAEJA+IEyChwRfe9eiYKnORSmgAgW2e3WmNaM7wVuRimI3BuZD8BkJuk25fJTcgI31ppD0A2+KmCJHIYkJwGoAFUpoklgAA6mQASa4BHuRF1rxTAJxXEU34zcmsmNwXOI6OLHqMVgAsiTCqh9l0zZ/JSBG7tsrkPNQqEvJ6zDwN4yg3ElS59qAcALiCRy5oufVqkyk93IOzkpwLow2Ui9ADkJ9+KuHcsashSpZNjEX14HMBTSeRW6Lcmqc4/mUKohpxmohJMj2Jtyc6TFABymdwaYNFVvjGzAcRoomaWlVCAXBKGpLhrZTToBKtzSTgTSj5heZrGBTLAS8IjVaTlzAgiHSOZsfnJmajThKxVSgwrLpjGwTp2nIFK3pIf20A8Z9d1hu/0RlkZPhgRsvWoOHhcoja1BaDbUhioZK2eKXUNASrFdn63aKEJwVq+bnJozyKjWmuBXNo0Lt9voiAtjCZkddMFmW10v8CLtOw/4+fxmm50c8GXAKb1hfuuGKZRiy8wRDxpcai70+IWeiYUJW7Qgq7zQMRBE7WafBm4ULnWnDpxYKrTcwyLs04CrAxTnMSBqb757T5Het2kcJimmyCcBI/fkWFx+XG5jnvbbLen27z+vb6+k0enqz9+/gc=);lineShape=1;strokeColor=default;rounded=1;sketch=1;hachureGap=4;jiggle=2;curveFitting=1;fontFamily=Architects Daughter;fontSource=https%3A%2F%2Ffonts.googleapis.com%2Fcss%3Ffamily%3DArchitects%2BDaughter;fontSize=20;strokeWidth=1;" vertex="1" parent="1">
          <mxGeometry x="721.8679306811259" y="318.8761784442929" width="48.36185464413006" height="419.8775094360042" as="geometry" />
        </mxCell>
        <mxCell id="vcEVfHxHfkmR4wFx27v9-9" value="" style="shape=stencil(lVlbctswDDyNfzEEHyD5nab3yEycxtM0zjjp6/YF66EigvI6+bMlrITnAqB24eb18e5lv/Pu9e10/L7/fbh/e9yFLzvvD8+P+9PhTX/twu0u3DwcT/tvp+PP5/vz/5e7Jtl+/Tj+ak/4c8YlCqGBvPt7vuAoxP8Xvp7Fnw7Pg7iPg7gnB8W5DOKBBIuPT09UAhR3g3ihDMXdqAx7igxtHV3DQjUj+TKq4/HzM7Vba/lCqVyWrz0yizMXDTflmamOBkSNFlCII5U6AgoJApT+vCVgkTIwwTMFGQCi+Qbe4CNJGgEJ2qBezaPRUqiky4DgyI0qZaZcAYCtl3KgCowOgdLopZygW4PGYczULFRA5gXpTlwAGRs9eSlr7TgAqOSNSpWiXAZEJh7dWlzP922AUoOpZiYHbIhCqVoAqs9Y++0F4GHgkqpkABHTXSYxKi0MuAkQ1dgYLZB/RcgbQKYEANlZlikaaQQIlsZKpQIirblZR16qjirivdppbgEsJbUJeI/rAvCUQaQ1TDwaXUNPlm1A6omwACJFUA/qdTEAJWNgtDrRlKgCKmDv5kRjg+D2oIEzccgYoCqN2apXULbqbZOttcJsbYBiAQmQgN6WYAGCVCqWKhWAZgb1SWELqMgG9fqkUgW5VKeh5xogbLgVquSp+E8Z7TuTrt2KVOIpva8EjjuprFMDsLeq5CcAYy/x5CXUH7SCvTG6UAVEpoFLeQIgo6Xz3BqAAlfsgNtsAKzRfDIlH6NI106MK4AHbmWn88/kV9TZ2ysm2hCsE086oSmxuWl6A+ooVaYGUWFn11Abnln54VI2Wf6uOJs0X6eaQ0Ncq4jZTZgGPgcoM5Vl2IPauGMA0pvMNsCTiAUw8JK2dj/10QhqLi/DyKpTCwIUu3K0RokAMtFAgKmRdVQw6eo7V20D/FQQ3Ilhe+qrdojT6YBBQeiSJGbqq9AGHUTTyEw64cDdO5Mzo67g3d5Pw3Tqftse14vddzUdA5rv9bYxOsDlMrq+86wWAkSWujalsaY1f9EApBs6j6yhW1BEi1mgOHopY3INnsJogyY8CpyurxaQIZHpguzNcql0C2zwxQ6ibd8Fbm0nIeYNEbb2dmplvMRwR/HBDkBSYEfh2k1cnzuA5GOxzNdONoANHGwcUoS8xM7Ole10Bm1y1qsRH9bFfiixPl9CUbCpqoEXwDFsm8mV8zGtlPn8DTR1Z+e9K+d782YMjw+dHUrw4aSz7R8ffTpLpzhW09CGj22dPfpU20G5ODvrOLgXOsvsuDmx9cxyAndBPHsrDsrE266B5zrfV7OPiQdbI1iZaEsWmxoth2BHpv7uj4Up2frASfDpLwNXxPXH+0eIh8PT0/kbxvq+/Wihl84fPMLtPw==);lineShape=1;strokeColor=default;rounded=1;sketch=1;hachureGap=4;jiggle=2;curveFitting=1;fontFamily=Architects Daughter;fontSource=https%3A%2F%2Ffonts.googleapis.com%2Fcss%3Ffamily%3DArchitects%2BDaughter;fontSize=20;" vertex="1" parent="1">
          <mxGeometry x="804.8679306811259" y="331.8761784442929" width="42.48716089935192" height="328.71150436870016" as="geometry" />
        </mxCell>
        <mxCell id="vcEVfHxHfkmR4wFx27v9-10" value="" style="shape=stencil(lVnbbtswDP2avBKSKFHic7f9R4Gma7CuLdru9vejFyizKOcYfUtkHosULzqkD3zz9nD7cjyk8Pb++vzt+Ot09/5w4E+HlE5PD8fX07v9OvDnA9/cP78ev74+/3i6O/9/uV0kl1/fn38ub/h9xmWKvIBS+HNeCMTl38KXs/jj6WkQZxnEmUJC4jq+vVDO18ULaR7EG+V6XbyS1EE8Jop6XT4Gr30UKgIATKoDIEWoUWxURguSkACV7PwkjQcaSQMANKqjSizUAICZ6uiDHCkBlbgRO0AhbsDJqT++AJQCONY8+bkkyiiM7H0ujgoVYHSJJGUEmFUIkCmMNkigBmwo0jW+AJgSA0CjNqoklgxAJYlUnEqVMshNyT3ULgAlBp629zmVqoUGUMkeh9HomqihDGXv6ZqhSlWoOpUKVRB89WLiBVApgB1apOZUatAPbbZBe0ptAyw241jGIkW0g3hPtwTrZKsUx8pnSlYQrQYo47GakihFDVCdDUKMVWoOUGFttcc6xlJrsFTa4zB6uikJUumS8h2glwvgGkBGTyvOB1MgjEZrooABeQJUkECLxqOnleEpmcbR7ZB7Pd8GmMbO6NJXtgHsg09xipoC3mjp4bgNsPc5x1VYve19LkUNoGgHy2AH0B3qELpjVwhGnlPS6AEoIexxrh6A6ow2f7MbAFVjO5Q67aAIIP5GWZ3DNdfJdExwi+wJ0GIECnD2l9ZyTOhc2bO+xRF4hzSphG4IA+TJESlCgE6OCChes2d95nwFjMn80IIHNLSDdNq5BqAyUCcbDIDKQOt+XduAAOqvxSVJUUJoT/p1jiI/aFdgHRrI0+p55bKCbfA3hIU3Tmpfv7UXt2t+CK6p2c9RnRJCUUJMbdwCQNE3senF6p0M0ulcUbh+GBCmwoQ7AruqXVdjJy2I9rXphhBYjo1R+WASTF3LRAYKtiH3Zn5FBiAp4+mUGCa1EdXmYinBsmE7+FPaoUw8Gb1DynhiDzu0j33p2yOW2VOmPeqaO/9fk2MUGtkn9UK/P2ZDwbHEVMacthWUouZpVzVspYAiYE2Pqxq2khAg+Ja6YipgjZu72W0F3ex1GjxYs4hmIda/uhZieQVqR82GsWpYw4tUkqkzsz1RZyZTTltXjsYzEj1fF4X0uzTf5S9KAhtKoeR2KDA0itUItwPD7rIEz40l9HDcnhi1zqdWAyDE4XLxHM6sEsAdlqnXNMQqwAaeJndZu2e2AXma3OGpFwc/zM0RGp2KDw2W3rVst0ETYeLUCc42IPfrYzUQrTsz2jHjUoTRKr5nj9I7iu1D8oUyJkrAbcnzsdanO9v6T5NKODCe2nuGvffUhOKbLfgkCD1Rr4in5MRRTxw8BTNxcPDBM4UA61z0cRDgl4bYRxArcRT5vmLtiddJdxhjKX7AVO7VdXWQIMTYp5SJo/G8pxLmZlQ5P/pBaEfcfvz/9nR/enw8f7paP/ffqmzp/J2LP/8F);lineShape=1;strokeColor=default;rounded=1;sketch=1;hachureGap=4;jiggle=2;curveFitting=1;fontFamily=Architects Daughter;fontSource=https%3A%2F%2Ffonts.googleapis.com%2Fcss%3Ffamily%3DArchitects%2BDaughter;fontSize=20;" vertex="1" parent="1">
          <mxGeometry x="860.8681399554264" y="337.8737750075243" width="54.80201410082577" height="319.0512099855291" as="geometry" />
        </mxCell>
        <mxCell id="vcEVfHxHfkmR4wFx27v9-11" value="" style="shape=stencil(lVnbUhsxDP2avGp8t/VM6X8wQyiZUsKE9Pb3lZs6jaXsWfK2LDqxJR1ddxPv3p8f3rab4N6Ph/3X7c/d4/F5Ez9tQti9Pm8Pu6M8beL9Jt497Q/bL4f999fH099vD12yP33b/+i/8OuEcxRcBwX3+/SiZWrp75vPJ/mX3euFvKeWZ/lCLi/LR4pVy/878ap8pti0fPTL8pU4GXkG9/fkzAEJKZyoFgNAJzRqrAE5LAO6jbwBgCt1pY0TMnJCoGKvVACgUnIGUJcBKZCLBtAA4GyTDwKyu2JWBn7ImbzSoeIT2AAaBeCHEqhFDUCeLsLNoAElAgAPq1/o0IAfaqCsrJSJUfxIwCkuBXilKheYrSRvEDUqE89Wqn6ceRXQPNVZ6ZLglZoE0JwEcqUKkkxLOh6EXQVwqSfFOQmkRAldqQyrD0BkmMe6X+e8FPMg/HWApJmZSzGRQyewTmQxUgAAdgYQxiWvA7ymhgAqCCAOo9ZcAALgEsfB/jPAUwBc4qRDNDAVQA3OVGezhoKVNolM8jniElcKCuCw0kKNmUteai4ya6M4+0GqXgNsFUBVmY8cuhGTU+EA64/Il5ncjjwoPyKvMoBbu4/qShxsYkSelQtGvVuUr1pfwAnv5L4qSUKFrwDOKn3wRj7AvqcDFIlEB6yzik0vlWTFaTMphKYobXdWVA1ASVUAqrj5c7u4CJij38fxE0uApE5YyS8CUAUapxeRnyMhj+q4qIHK8pRRzuZBzLMCawqX2WluzaI1KXm3wqKo5FHz3GmqUtdIfovyqkaNGrQoPzu4wNx7JTDbWhSwcoCHuYJNeyQcbfgEVQMlClAz332mSF3WQv9mgFcAxjWw6ZImGdijDN/0QCIpGBKj6nGh1zSkg5Rl1YB5bNaie3NpwCA1pLWYq1Rs5BE1ki5ryY3Jb7E9mnWQuawgKwVzQsQ527R40gh7ZFbTRAoADVXN1H4BoPmiN8JzSkoZzxdVV/9UoR96Mz/rIOMCGtD7zDWfIMNoQYCkqVH8SISLI4/KYw1So3kdcXVlMDSZtQ+GgN59MJyVFs+sjZ7zCcJfNNHLcFtUk1Rh9rbjs2SqgOZtM6BfFIAP7gB6fr5py8B4IrF7DMau7puSpgERLW/MCCN25Zu2PSsAu0/qAGAlu7HqAMANuxNjnO/t1q0DAF3tXq8DAJns5rAD0BRgdpMC8LcsP7s8OMAsVxkvuMzythMJMM8sh0Ue9Q1m+dwHUaCvTI329wOUVy7GND1PmRfyDpDOmTDA3bwbBDvL47nZDoURLtutvF+xv7pPYxhkRt++voT2d2Z7mQA/jb9WdsKGD/1jBLT/bR871uXl4f+Xlafdy8vpw8zl//WXGHl1+ooT7/8A);lineShape=1;strokeColor=default;rounded=1;sketch=1;hachureGap=4;jiggle=2;curveFitting=1;fontFamily=Architects Daughter;fontSource=https%3A%2F%2Ffonts.googleapis.com%2Fcss%3Ffamily%3DArchitects%2BDaughter;fontSize=20;" vertex="1" parent="1">
          <mxGeometry x="383.8761784442929" y="444.7554592277015" width="553.9669467582855" height="17.604537556091145" as="geometry" />
        </mxCell>
        <mxCell id="vcEVfHxHfkmR4wFx27v9-12" value="" style="shape=stencil(lVjbUhsxDP2avGp8t/xM6X8wQyiZUsKE0MvfV27GNJZ2z8JbWHR2ZenoSPIu3rw+3r3sd8G9nk/H7/tfh/vz4y5+2YVweH7cnw5n+bWLt7t483A87b+djm/P95e/X+66Zf/14/izv+H3BefIlw4K7s/lQQnE7d+Trxf7p8Pzlb2nkGb7SDGv2weKVdsXXrdP5LK2b2HdvlAKs30i79btG2XW9iGC80bKRQMicMgzhaZPkMCJgwRkBmRx0gNAozLnIDvKIGcxU5uDGpkKSFoKOqohjyfLAKY6f0Hilso6ICdiNwHSeMNymh2l2V6Im4C9+FuVvQO0KE2HKFMESauR2M8HLlSBQ7WSm7Mc/WDWMqARz8RLBVYCBwpz0oRHDM7MSQMKw9rnMmI4ABIGxCOuVOcvVElzBYCm0yZfSKA8m9fVVv1QkGVANALGUABaJh9nQCEP8tAqRaUYeQR6GWAyLRLDgEsCaE5/IYHEdYA6dB31tAqYZbK6capVgMqDKDkAeOcMmRjH1XxCGO+BTnbATCbOVDYAc6pZuIFPzcqlBvndAXMiGtal1rROiksNn6HOZJKqLYjfAlCHjlD6OkAVtfQrnDgNyLiojUsVa6U9tBR1xFFSYZWidhsAVUEJqrGlRnkXkg+ST1wqGyqgRqtGAZNP12iAbF2q0QLb9AKC3eiUH1QaaUsbbFJaJl1mS/yUS9JlNnI9s6kX6UZVfw5gWoQAEupapglJ40Njt21z8gR+Qd43R6kVCkAGbKtuMlSCIrXDwBVblhFZE1Y+wWh8kIlGHSKNsWt1ZlLcSIOPq1PZHNeKm1Cf+2Z+5zLEanWyVJOxhy7Z0TU6qPh2NpZhF7U5O3z3dQAc2k734pIDLvX9YS6IyFBo7IYiOxCav/sOZIYspPh2y6oFstXuccJfBLCbotQUnJnMLtpwWM2yK/ZoxDLLtNgHlAW9rHcZA/6YywCxL6gBGRHzMKLmMkPs0Rb6Ho3r9wMSOb3DScIYxNPp+IgGMvTHqVEsD4qs2c9LaNcz7L8ZuRuMp7bPsIkYfzbE0Zy34AIw8ZQRCV2tmHxJzWfAT8OHfrkF/f/c5dm2vfz4f1P3cHh6ulz0Xf9f3+zJo8utYLz9Cw==);lineShape=1;strokeColor=default;rounded=1;sketch=1;hachureGap=4;jiggle=2;curveFitting=1;fontFamily=Architects Daughter;fontSource=https%3A%2F%2Ffonts.googleapis.com%2Fcss%3Ffamily%3DArchitects%2BDaughter;fontSize=20;" vertex="1" parent="1">
          <mxGeometry x="394.8761784442929" y="554.882518693458" width="702.1412113538438" height="7.926797273893953" as="geometry" />
        </mxCell>
        <mxCell id="vcEVfHxHfkmR4wFx27v9-13" value="" style="shape=stencil(lVnJUtxADP2auap6X84k+Q+qGMJUCFBAtr+POpM2ljR+httg+rm1PK0+xKuXu+un4yG4l9fnx2/HX6eb17tD/HQI4fRwd3w+vfKvQ/x8iFe3j8/Hr8+PPx5uzn8/XY+T49f3x5/jDb/POEchDVBwf84PaqLm/z35cj5/f3pYnffkzPkOzgfqTp7PFN32+US16vfXvn2+UgryfCRXgPzOCOTIAYF8JtcFoBSK6IZOrUhAoJSBibK2aW6U4jYgOkpSpJwoghtipq4Ai98ve8FTbAKQyrTbZUChLM2a8nxyEZA9BXNDAo7Omaq6oVEGzMvsh6CV7nUbUCIV6bjMT4AOpZKXOmSmRgBkZcdJHVhIxFYm83+/Llzy1AA1aiGnABHSu7IRJfmYrRUAmqNmRKoNADgFqHhwlIGnG2egpq0UEKBQUZ5uVAG9W6PgNACxtfUp8TpEAaC7mbVWOnjg6e5n2l1ZKQC29kAlaT9AkZhLXgMquiFSMzegJNCTjmkGIMf1PLm5MiuiNwOKLA8coh6JxAEZdZpBMc2ArgCOPBLJVKAYsFmrrkChzDxyGdBmvZkAv0O+Tkl62sMsw+ezvACXRD6vUrGfF26db9KmGZu0ax94B5uAAZDR5isEeOc081imuHOFtBG7uWEjNSlT5CwGivSwquR2SntuUxmAuV1B+Rm86BrQ8Q2q/LBIFesQTPSgisgAL3WIaT7ZBJjoaVgHBfCLkJsAqbQPs6huKq0q4mwZN60qHc1pFb8/y3Bm8qJ80XUf42bW3CSeYup8wWYoSItytd0JZ6Vvxh30hegMsxZtXiErz+iRcUrqKmtXClhpVZ8TF+AdL5gGd4cWHwQ0KqqgB9gRM0CPMh32SVyq1A08jRVcDJ10NbeLBYlU5mi0AHZqA48BktxtJ61yjyFTEndOMHzSJMICcNisUQ8abScg4uyKFkDBSS/oBrdFHA9+1qYFEGab8s5+tfnZLr6zI2ZPZxBAtuce1EAA09WP0eNDcwPrkNAYYCYTfgLnBjP7sB86GsfMdDWERAOfmd9GPOxMiMmIBOjNM2g0nkb1cEy5aiXD7Se4YczRUoea4YSYTW5lrTyI6cxjgNSBtapoF+DnLLVkvgYBY5+hcmuFMW03JpxbPai6segaV8Mkyzu3PkwWpIPdKw3+Aj/YzRWTz6FloNmNcVpAudVu3zi1wQCai7DlfIETpVkfdrxKM+vJt2brfevPt2bo4nmzXl31NhsAtVIabQFQYBlOVwqjNLy0jiuDoonbGYXT3vtl3IxSBMLAdHpcJzooVPZ8hpw28oykD6LM6Msxg9oLY89a4ZLR+IuDGL9f8YFzKUorH93n75/nH28fD25P9/fnbw/r/+uPDfzo/KEifv4L);lineShape=1;strokeColor=default;rounded=1;sketch=1;hachureGap=4;jiggle=2;curveFitting=1;fontFamily=Architects Daughter;fontSource=https%3A%2F%2Ffonts.googleapis.com%2Fcss%3Ffamily%3DArchitects%2BDaughter;fontSize=20;" vertex="1" parent="1">
          <mxGeometry x="453.87104212100303" y="391.10889503040323" width="471.4952610033315" height="9.028348307405395" as="geometry" />
        </mxCell>
        <mxCell id="vcEVfHxHfkmR4wFx27v9-14" value="" style="shape=stencil(nVnbUhsxDP2avGp8t/VM6X90plAypdABevv7Sk0dIjl7UvoGG521dT/S7vLV892Hrze7FJ5fnh4/3/zYf3y52+V3u5T2D3c3T/sX+WuXr3f56vbx6ebT0+O3h4+H/79+UEn968vjd33DzwMuUMoKSuHX4cHoVOufJ+8P8vf7hxP5SDF6+Q7kE3H38hy25Qt1Jz8oAPlOOS7yA9w/UGMPiAUACo28ANAJTLV4QAIqiM4tLYAMAEy8AoAOuVKqCwB4rQQqDtBpNAColJ3fGtUEALyYtcxXnAXUTN05LlIBfqgSGlaHLkoDQAtUmwUUYmDWlqlYT/cIk6c1isEAGg4++blaT7c6X3E+HQJ1q4NcMgA/9ERjWECcdjsPONpkAqq4EgEasfVDlRQF4S1uYmulWqmB0BiBhgOI0gwAiZq1Ug3QShKbLh9Kg1aS6I/WSiVRAUprGbWezoMy0oH9CVlqJwgNDvN9R4AUc5DTLPllczqJ44AfOPmMSxKtQAcWN1kdEraSAJr1tDQwFEtc/Amxz4DfAjSrgzQARidUn9PxeMktQHNXShjQKLgrRViXBFBtU5Sux0jp7nWQ4EKOFhvaA+RE9P4xy+Ix9GDJ4KWFBkgCRL4NJ/+XFmzJu4IR54Mtebb6Sq+6IG8zp8/WskFKjvqduBhRAD3BanwpTBfOEKUbIh+LjSxAjMrYqN3lZoJaq5dtFZawCDgsSvYnZJQI7Nmh6FBQQWJKzkpSl7HSsXk/XDBrdMkcZrBvAlyDnp7cVMHeSIgTyk32zC1OVrPpNevmgGuF5GZ28rCJsGcwEdJtjdPh9EU8UhPBMSQqwMNncpNxMZWfbZ+VhtCxx3jpUQkDhksc8QFO/r702QuA5hIH08j/ATirSk1llJpjltwjoE8Wt9WkfNO50BXabEpHQJoMaAuQbWhnzDul9bu+IyfARlK90sLZKuY7nkaGGe9bgLicMJDjsufOokPHJM+fUDBnE6s7QINDjxBVx3cyY74QfCMRdg4HhqUIlyOL26TzbmDgGSybA4MtwzLDZFBmdCSxV9KBFzhOh55l0kNW0rHKxlIrsHTr4OYADaaojoZW6SaOAymqw6eb6eWSwA863tpi3DFl0AHaWknORFfSEd0tARqMJV0CWCt1nk821ww248SViDLoIsMtYyocGDRyHIDhqkRi0xUyTVqgtK57rJW0tIET1oWS1nOgw7qy4gE3jetSTKkQ2tMtFPqVX/7jYo9xEVhXhwpA29hlOamAN60/lVSD4Fv2qyoPasCyv1W++Jb9sDIJNCr5/fPrLHdWftlvn/C5DUBcLoT6YfDZrAQcZEKY6+mTMEV8O/gFBncYdGFWq5NEQ3R1ZbcFMoxVPsNuvt4nzur0j/oGuNte7DlwNV38NfAcvMSDtnZ4n7d9ULksL3+8fr253d/fHz7+nP7uv/bIo8OXonz9Gw==);lineShape=1;strokeColor=default;rounded=1;sketch=1;hachureGap=4;jiggle=2;curveFitting=1;fontFamily=Architects Daughter;fontSource=https%3A%2F%2Ffonts.googleapis.com%2Fcss%3Ffamily%3DArchitects%2BDaughter;fontSize=20;" vertex="1" parent="1">
          <mxGeometry x="453.8761784442929" y="621.9389911598366" width="493.801881208135" height="18.19307815903744" as="geometry" />
        </mxCell>
        <mxCell id="vcEVfHxHfkmR4wFx27v9-15" value="" style="shape=stencil(fZbLUsMwDEW/JluNbdmWvObxH52h0AylZUp5/T0yIW5lEu0SJyeypHsVD3jzttu8bofg3s6n4/P2c3w47wa8HUIYD7vtaTzL1YB3A948Hk/bp9Px/fAw3b9u6pv16uX4Ub/wNXHMgKFSwX1PK+gh5N+V+wnYj4croCQoUQHRA1tAAcoKSBEwmkD0CsgEWAwgQtEAFchpHeAMpHPgAhzWAUo9UDKwESEjOFaAdw6cWyeS64nCc6UXAWRwRQMIxOtAkFbrCJzAGZ0LHoruHEkEIwdfIHWdc8DWlkRrpMVEZtKBwGkAMwSjEfIYnQLqJ4xW1w3oKtVNGoCk2KlPyhCNstYihj5CMSLUNnVbklYaSVchaGlUsZABcG/qKkcjhys1t1ajHaIZpompmWo562bJJtdsAhfTN0O0wbDcOYKoc7iMnmWPyuDKPUBGmepo7Dwq4xMNuYrWNFAHtLElATp9Xyb6muWwiyBqMbbkA7C2HGUoxhQQQ6JWBs8rywF6YSQ2DfdPeWJZy28O6N/ISFbTwOv9S0be+sHNI675P5tDzxPkbtKb9akDq3Pz/IFlSRAkbWY3LyznyxBT9775pyrgdUHDPJ/+3peLy3njcdzvp+PK9fP+fCJL09kG734A);lineShape=1;strokeColor=default;rounded=1;sketch=1;hachureGap=4;jiggle=2;curveFitting=1;fontFamily=Architects Daughter;fontSource=https%3A%2F%2Ffonts.googleapis.com%2Fcss%3Ffamily%3DArchitects%2BDaughter;fontSize=20;" vertex="1" parent="1">
          <mxGeometry x="590.2163545548228" y="478.2186487597039" width="3.943354247905745" height="3.9410987922151435" as="geometry" />
        </mxCell>
        <mxCell id="vcEVfHxHfkmR4wFx27v9-16" value="" style="shape=stencil(lZbZctswDEW/Rq8YEgC35yz/kZk4taaOnXGctP37QtXIFVj5TvMmyzrEwntBDnL3vn962w0c3i/n0/fdj/H5sh/kfmAej/vdebzY0yAPg9y9nM67b+fTx/F5/v32NH05Pb2ePqcVfs5cYuI8URx+zW8kkKY/bx5n4DAeV4BGis0BKVKtt4HSqEQH1EaqABCKPqVaKYIIuZAEDyglUENmKskBpVLj20Bq1IoHIrUAAfZAVmIQIYe+SylTRkUrRfVAoFAAYCn5CJoooI1LJNUDJha5DVSm0EUwaSCgkvqNU4H70ISqF5/WpdHbQOmBpKQgpRisiz6nHBe1bIcwbfgQ1mkFfZ1y6tSXqQIxTVWz1zdTAw6yvkoHlMXm20Bc2r7yqESoDfZFW8yK1RfFA3lp9C19B6++GqghQ4TFL9e2KgnYuMmjfs5kvA/5H2nYEhGZmpf1rgBjwCaZHxuaKQHAZiV7LZlHkYNsGncpmUdzw+O7fQWYavBAy1B805Dw4luZcNukNt59Ec3eAENseToAacS4nB+rUzGDGlj6CDYDQJM4UfJiTVTAtrG5y2vVjjBgN2HKvoAAJ7FkKtJ9j3ZAQ59PIAHrq/ayi9BqNtbF56NwfbuDsP++UAH7lWQZDdd8bASCgZe0V0TEzjSgeCtbyQI0ail15whneKB/+er2H4A9/L0pvoyHw3zRXP/f3yzt1XwrlYff);lineShape=1;strokeColor=default;rounded=1;sketch=1;hachureGap=4;jiggle=2;curveFitting=1;fontFamily=Architects Daughter;fontSource=https%3A%2F%2Ffonts.googleapis.com%2Fcss%3Ffamily%3DArchitects%2BDaughter;fontSize=20;" vertex="1" parent="1">
          <mxGeometry x="588.1568867842793" y="478.24796051981957" width="10.213554283360281" height="8.773949349839768" as="geometry" />
        </mxCell>
        <mxCell id="vcEVfHxHfkmR4wFx27v9-17" value="" style="shape=stencil(fZbLUsMwDEW/JluNbdmWvObxH52h0AylZUp5/T0yIW5lEu0SJyeypHsVD3jzttu8bofg3s6n4/P2c3w47wa8HUIYD7vtaTzL1YB3A948Hk/bp9Px/fAw3b9u6pv16uX4Ub/wNXHMgKFSwX1PK+gh5N+V+wnYj4croCQoUQHRA1tAAcoKSBEwmkD0CsgEWAwgQtEAFchpHeAMpHPgAhzWAUo9UDKwESEjOFaAdw6cWyeS64nCc6UXAWRwRQMIxOtAkFbrCJzAGZ0LHoruHEkEIwdfIHWdc8DWlkRrpMVEZtKBwGkAMwSjEfIYnQLqJ4xW1w3oKtVNGoCk2KlPyhCNstYihj5CMSLUNnVbklYaSVchaGlUsZABcG/qKkcjhys1t1ajHaIZpompmWo562bJJtdsAhfTN0O0wbDcOYKoc7iMnmWPyuDKPUBGmepo7Dwq4xMNuYrWNFAHtLElATp9Xyb6muWwiyBqMbbkA7C2HGUoxhQQQ6JWBs8rywF6YSQ2DfdPeWJZy28O6N/ISFbTwOv9S0be+sHNI675P5tDzxPkbtKb9akDq3Pz/IFlSRAkbWY3LyznyxBT9775pyrgdUHDPJ/+3peLy3njcdzvp+PK9fP+fCJL09kG734A);lineShape=1;strokeColor=default;rounded=1;sketch=1;hachureGap=4;jiggle=2;curveFitting=1;fontFamily=Architects Daughter;fontSource=https%3A%2F%2Ffonts.googleapis.com%2Fcss%3Ffamily%3DArchitects%2BDaughter;fontSize=20;" vertex="1" parent="1">
          <mxGeometry x="621.2163545548228" y="486.2186487597039" width="3.943354247905745" height="3.9410987922151435" as="geometry" />
        </mxCell>
        <mxCell id="vcEVfHxHfkmR4wFx27v9-18" value="" style="shape=stencil(fZbLUsMwDEW/JluNbdmWvObxH52h0AylZUp5/T0yIW5lEu0SJyeypHsVD3jzttu8bofg3s6n4/P2c3w47wa8HUIYD7vtaTzL1YB3A948Hk/bp9Px/fAw3b9u6pv16uX4Ub/wNXHMgKFSwX1PK+gh5N+V+wnYj4croCQoUQHRA1tAAcoKSBEwmkD0CsgEWAwgQtEAFchpHeAMpHPgAhzWAUo9UDKwESEjOFaAdw6cWyeS64nCc6UXAWRwRQMIxOtAkFbrCJzAGZ0LHoruHEkEIwdfIHWdc8DWlkRrpMVEZtKBwGkAMwSjEfIYnQLqJ4xW1w3oKtVNGoCk2KlPyhCNstYihj5CMSLUNnVbklYaSVchaGlUsZABcG/qKkcjhys1t1ajHaIZpompmWo562bJJtdsAhfTN0O0wbDcOYKoc7iMnmWPyuDKPUBGmepo7Dwq4xMNuYrWNFAHtLElATp9Xyb6muWwiyBqMbbkA7C2HGUoxhQQQ6JWBs8rywF6YSQ2DfdPeWJZy28O6N/ISFbTwOv9S0be+sHNI675P5tDzxPkbtKb9akDq3Pz/IFlSRAkbWY3LyznyxBT9775pyrgdUHDPJ/+3peLy3njcdzvp+PK9fP+fCJL09kG734A);lineShape=1;strokeColor=default;rounded=1;sketch=1;hachureGap=4;jiggle=2;curveFitting=1;fontFamily=Architects Daughter;fontSource=https%3A%2F%2Ffonts.googleapis.com%2Fcss%3Ffamily%3DArchitects%2BDaughter;fontSize=20;" vertex="1" parent="1">
          <mxGeometry x="586.2163545548228" y="510.2186487597039" width="3.943354247905745" height="3.9410987922151435" as="geometry" />
        </mxCell>
        <mxCell id="vcEVfHxHfkmR4wFx27v9-19" value="" style="shape=stencil(fZbLUsMwDEW/JluNbdmWvObxH52h0AylZUp5/T0yIW5lEu0SJyeypHsVD3jzttu8bofg3s6n4/P2c3w47wa8HUIYD7vtaTzL1YB3A948Hk/bp9Px/fAw3b9u6pv16uX4Ub/wNXHMgKFSwX1PK+gh5N+V+wnYj4croCQoUQHRA1tAAcoKSBEwmkD0CsgEWAwgQtEAFchpHeAMpHPgAhzWAUo9UDKwESEjOFaAdw6cWyeS64nCc6UXAWRwRQMIxOtAkFbrCJzAGZ0LHoruHEkEIwdfIHWdc8DWlkRrpMVEZtKBwGkAMwSjEfIYnQLqJ4xW1w3oKtVNGoCk2KlPyhCNstYihj5CMSLUNnVbklYaSVchaGlUsZABcG/qKkcjhys1t1ajHaIZpompmWo562bJJtdsAhfTN0O0wbDcOYKoc7iMnmWPyuDKPUBGmepo7Dwq4xMNuYrWNFAHtLElATp9Xyb6muWwiyBqMbbkA7C2HGUoxhQQQ6JWBs8rywF6YSQ2DfdPeWJZy28O6N/ISFbTwOv9S0be+sHNI675P5tDzxPkbtKb9akDq3Pz/IFlSRAkbWY3LyznyxBT9775pyrgdUHDPJ/+3peLy3njcdzvp+PK9fP+fCJL09kG734A);lineShape=1;strokeColor=default;rounded=1;sketch=1;hachureGap=4;jiggle=2;curveFitting=1;fontFamily=Architects Daughter;fontSource=https%3A%2F%2Ffonts.googleapis.com%2Fcss%3Ffamily%3DArchitects%2BDaughter;fontSize=20;" vertex="1" parent="1">
          <mxGeometry x="570.2163545548228" y="490.2186487597039" width="3.943354247905745" height="3.9410987922151435" as="geometry" />
        </mxCell>
        <mxCell id="vcEVfHxHfkmR4wFx27v9-20" value="" style="shape=stencil(fZbLUsMwDEW/JluNbdmWvObxH52h0AylZUp5/T0yIW5lEu0SJyeypHsVD3jzttu8bofg3s6n4/P2c3w47wa8HUIYD7vtaTzL1YB3A948Hk/bp9Px/fAw3b9u6pv16uX4Ub/wNXHMgKFSwX1PK+gh5N+V+wnYj4croCQoUQHRA1tAAcoKSBEwmkD0CsgEWAwgQtEAFchpHeAMpHPgAhzWAUo9UDKwESEjOFaAdw6cWyeS64nCc6UXAWRwRQMIxOtAkFbrCJzAGZ0LHoruHEkEIwdfIHWdc8DWlkRrpMVEZtKBwGkAMwSjEfIYnQLqJ4xW1w3oKtVNGoCk2KlPyhCNstYihj5CMSLUNnVbklYaSVchaGlUsZABcG/qKkcjhys1t1ajHaIZpompmWo562bJJtdsAhfTN0O0wbDcOYKoc7iMnmWPyuDKPUBGmepo7Dwq4xMNuYrWNFAHtLElATp9Xyb6muWwiyBqMbbkA7C2HGUoxhQQQ6JWBs8rywF6YSQ2DfdPeWJZy28O6N/ISFbTwOv9S0be+sHNI675P5tDzxPkbtKb9akDq3Pz/IFlSRAkbWY3LyznyxBT9775pyrgdUHDPJ/+3peLy3njcdzvp+PK9fP+fCJL09kG734A);lineShape=1;strokeColor=default;rounded=1;sketch=1;hachureGap=4;jiggle=2;curveFitting=1;fontFamily=Architects Daughter;fontSource=https%3A%2F%2Ffonts.googleapis.com%2Fcss%3Ffamily%3DArchitects%2BDaughter;fontSize=20;" vertex="1" parent="1">
          <mxGeometry x="622.2163545548228" y="519.2186487597039" width="3.943354247905745" height="3.9410987922151435" as="geometry" />
        </mxCell>
        <mxCell id="vcEVfHxHfkmR4wFx27v9-21" value="" style="shape=stencil(fZbLUsMwDEW/JluNbdmWvObxH52h0AylZUp5/T0yIW5lEu0SJyeypHsVD3jzttu8bofg3s6n4/P2c3w47wa8HUIYD7vtaTzL1YB3A948Hk/bp9Px/fAw3b9u6pv16uX4Ub/wNXHMgKFSwX1PK+gh5N+V+wnYj4croCQoUQHRA1tAAcoKSBEwmkD0CsgEWAwgQtEAFchpHeAMpHPgAhzWAUo9UDKwESEjOFaAdw6cWyeS64nCc6UXAWRwRQMIxOtAkFbrCJzAGZ0LHoruHEkEIwdfIHWdc8DWlkRrpMVEZtKBwGkAMwSjEfIYnQLqJ4xW1w3oKtVNGoCk2KlPyhCNstYihj5CMSLUNnVbklYaSVchaGlUsZABcG/qKkcjhys1t1ajHaIZpompmWo562bJJtdsAhfTN0O0wbDcOYKoc7iMnmWPyuDKPUBGmepo7Dwq4xMNuYrWNFAHtLElATp9Xyb6muWwiyBqMbbkA7C2HGUoxhQQQ6JWBs8rywF6YSQ2DfdPeWJZy28O6N/ISFbTwOv9S0be+sHNI675P5tDzxPkbtKb9akDq3Pz/IFlSRAkbWY3LyznyxBT9775pyrgdUHDPJ/+3peLy3njcdzvp+PK9fP+fCJL09kG734A);lineShape=1;strokeColor=default;rounded=1;sketch=1;hachureGap=4;jiggle=2;curveFitting=1;fontFamily=Architects Daughter;fontSource=https%3A%2F%2Ffonts.googleapis.com%2Fcss%3Ffamily%3DArchitects%2BDaughter;fontSize=20;" vertex="1" parent="1">
          <mxGeometry x="571.2163545548228" y="537.2186487597039" width="3.943354247905745" height="3.9410987922151435" as="geometry" />
        </mxCell>
        <mxCell id="vcEVfHxHfkmR4wFx27v9-22" value="" style="shape=stencil(fZbLUsMwDEW/JluNbdmWvObxH52h0AylZUp5/T0yIW5lEu0SJyeypHsVD3jzttu8bofg3s6n4/P2c3w47wa8HUIYD7vtaTzL1YB3A948Hk/bp9Px/fAw3b9u6pv16uX4Ub/wNXHMgKFSwX1PK+gh5N+V+wnYj4croCQoUQHRA1tAAcoKSBEwmkD0CsgEWAwgQtEAFchpHeAMpHPgAhzWAUo9UDKwESEjOFaAdw6cWyeS64nCc6UXAWRwRQMIxOtAkFbrCJzAGZ0LHoruHEkEIwdfIHWdc8DWlkRrpMVEZtKBwGkAMwSjEfIYnQLqJ4xW1w3oKtVNGoCk2KlPyhCNstYihj5CMSLUNnVbklYaSVchaGlUsZABcG/qKkcjhys1t1ajHaIZpompmWo562bJJtdsAhfTN0O0wbDcOYKoc7iMnmWPyuDKPUBGmepo7Dwq4xMNuYrWNFAHtLElATp9Xyb6muWwiyBqMbbkA7C2HGUoxhQQQ6JWBs8rywF6YSQ2DfdPeWJZy28O6N/ISFbTwOv9S0be+sHNI675P5tDzxPkbtKb9akDq3Pz/IFlSRAkbWY3LyznyxBT9775pyrgdUHDPJ/+3peLy3njcdzvp+PK9fP+fCJL09kG734A);lineShape=1;strokeColor=default;rounded=1;sketch=1;hachureGap=4;jiggle=2;curveFitting=1;fontFamily=Architects Daughter;fontSource=https%3A%2F%2Ffonts.googleapis.com%2Fcss%3Ffamily%3DArchitects%2BDaughter;fontSize=20;" vertex="1" parent="1">
          <mxGeometry x="588.2163545548228" y="443.2186487597039" width="3.943354247905745" height="3.9410987922151435" as="geometry" />
        </mxCell>
        <mxCell id="vcEVfHxHfkmR4wFx27v9-23" value="" style="shape=stencil(fZbLUsMwDEW/JluNbdmWvObxH52h0AylZUp5/T0yIW5lEu0SJyeypHsVD3jzttu8bofg3s6n4/P2c3w47wa8HUIYD7vtaTzL1YB3A948Hk/bp9Px/fAw3b9u6pv16uX4Ub/wNXHMgKFSwX1PK+gh5N+V+wnYj4croCQoUQHRA1tAAcoKSBEwmkD0CsgEWAwgQtEAFchpHeAMpHPgAhzWAUo9UDKwESEjOFaAdw6cWyeS64nCc6UXAWRwRQMIxOtAkFbrCJzAGZ0LHoruHEkEIwdfIHWdc8DWlkRrpMVEZtKBwGkAMwSjEfIYnQLqJ4xW1w3oKtVNGoCk2KlPyhCNstYihj5CMSLUNnVbklYaSVchaGlUsZABcG/qKkcjhys1t1ajHaIZpompmWo562bJJtdsAhfTN0O0wbDcOYKoc7iMnmWPyuDKPUBGmepo7Dwq4xMNuYrWNFAHtLElATp9Xyb6muWwiyBqMbbkA7C2HGUoxhQQQ6JWBs8rywF6YSQ2DfdPeWJZy28O6N/ISFbTwOv9S0be+sHNI675P5tDzxPkbtKb9akDq3Pz/IFlSRAkbWY3LyznyxBT9775pyrgdUHDPJ/+3peLy3njcdzvp+PK9fP+fCJL09kG734A);lineShape=1;strokeColor=default;rounded=1;sketch=1;hachureGap=4;jiggle=2;curveFitting=1;fontFamily=Architects Daughter;fontSource=https%3A%2F%2Ffonts.googleapis.com%2Fcss%3Ffamily%3DArchitects%2BDaughter;fontSize=20;" vertex="1" parent="1">
          <mxGeometry x="537.2163545548228" y="444.2186487597039" width="3.943354247905745" height="3.9410987922151435" as="geometry" />
        </mxCell>
        <mxCell id="vcEVfHxHfkmR4wFx27v9-24" value="" style="shape=stencil(fZbLUsMwDEW/JluNbdmWvObxH52h0AylZUp5/T0yIW5lEu0SJyeypHsVD3jzttu8bofg3s6n4/P2c3w47wa8HUIYD7vtaTzL1YB3A948Hk/bp9Px/fAw3b9u6pv16uX4Ub/wNXHMgKFSwX1PK+gh5N+V+wnYj4croCQoUQHRA1tAAcoKSBEwmkD0CsgEWAwgQtEAFchpHeAMpHPgAhzWAUo9UDKwESEjOFaAdw6cWyeS64nCc6UXAWRwRQMIxOtAkFbrCJzAGZ0LHoruHEkEIwdfIHWdc8DWlkRrpMVEZtKBwGkAMwSjEfIYnQLqJ4xW1w3oKtVNGoCk2KlPyhCNstYihj5CMSLUNnVbklYaSVchaGlUsZABcG/qKkcjhys1t1ajHaIZpompmWo562bJJtdsAhfTN0O0wbDcOYKoc7iMnmWPyuDKPUBGmepo7Dwq4xMNuYrWNFAHtLElATp9Xyb6muWwiyBqMbbkA7C2HGUoxhQQQ6JWBs8rywF6YSQ2DfdPeWJZy28O6N/ISFbTwOv9S0be+sHNI675P5tDzxPkbtKb9akDq3Pz/IFlSRAkbWY3LyznyxBT9775pyrgdUHDPJ/+3peLy3njcdzvp+PK9fP+fCJL09kG734A);lineShape=1;strokeColor=default;rounded=1;sketch=1;hachureGap=4;jiggle=2;curveFitting=1;fontFamily=Architects Daughter;fontSource=https%3A%2F%2Ffonts.googleapis.com%2Fcss%3Ffamily%3DArchitects%2BDaughter;fontSize=20;" vertex="1" parent="1">
          <mxGeometry x="529.2163545548228" y="484.2186487597039" width="3.943354247905745" height="3.9410987922151435" as="geometry" />
        </mxCell>
        <mxCell id="vcEVfHxHfkmR4wFx27v9-25" value="" style="shape=stencil(fZbLUsMwDEW/JluNbdmWvObxH52h0AylZUp5/T0yIW5lEu0SJyeypHsVD3jzttu8bofg3s6n4/P2c3w47wa8HUIYD7vtaTzL1YB3A948Hk/bp9Px/fAw3b9u6pv16uX4Ub/wNXHMgKFSwX1PK+gh5N+V+wnYj4croCQoUQHRA1tAAcoKSBEwmkD0CsgEWAwgQtEAFchpHeAMpHPgAhzWAUo9UDKwESEjOFaAdw6cWyeS64nCc6UXAWRwRQMIxOtAkFbrCJzAGZ0LHoruHEkEIwdfIHWdc8DWlkRrpMVEZtKBwGkAMwSjEfIYnQLqJ4xW1w3oKtVNGoCk2KlPyhCNstYihj5CMSLUNnVbklYaSVchaGlUsZABcG/qKkcjhys1t1ajHaIZpompmWo562bJJtdsAhfTN0O0wbDcOYKoc7iMnmWPyuDKPUBGmepo7Dwq4xMNuYrWNFAHtLElATp9Xyb6muWwiyBqMbbkA7C2HGUoxhQQQ6JWBs8rywF6YSQ2DfdPeWJZy28O6N/ISFbTwOv9S0be+sHNI675P5tDzxPkbtKb9akDq3Pz/IFlSRAkbWY3LyznyxBT9775pyrgdUHDPJ/+3peLy3njcdzvp+PK9fP+fCJL09kG734A);lineShape=1;strokeColor=default;rounded=1;sketch=1;hachureGap=4;jiggle=2;curveFitting=1;fontFamily=Architects Daughter;fontSource=https%3A%2F%2Ffonts.googleapis.com%2Fcss%3Ffamily%3DArchitects%2BDaughter;fontSize=20;" vertex="1" parent="1">
          <mxGeometry x="544.2163545548228" y="506.2186487597039" width="3.943354247905745" height="3.9410987922151435" as="geometry" />
        </mxCell>
        <mxCell id="vcEVfHxHfkmR4wFx27v9-26" value="Driver" style="shape=process;whiteSpace=wrap;html=1;backgroundOutline=1;rounded=1;sketch=1;hachureGap=4;jiggle=2;curveFitting=1;fontFamily=Architects Daughter;fontSource=https%3A%2F%2Ffonts.googleapis.com%2Fcss%3Ffamily%3DArchitects%2BDaughter;fontSize=20;" vertex="1" parent="1">
          <mxGeometry x="50" y="660.59" width="120" height="60" as="geometry" />
        </mxCell>
        <mxCell id="vcEVfHxHfkmR4wFx27v9-27" value="Rider" style="shape=process;whiteSpace=wrap;html=1;backgroundOutline=1;rounded=1;sketch=1;hachureGap=4;jiggle=2;curveFitting=1;fontFamily=Architects Daughter;fontSource=https%3A%2F%2Ffonts.googleapis.com%2Fcss%3Ffamily%3DArchitects%2BDaughter;fontSize=20;" vertex="1" parent="1">
          <mxGeometry x="50" y="799.9999999999999" width="120" height="60" as="geometry" />
        </mxCell>
        <mxCell id="vcEVfHxHfkmR4wFx27v9-28" value="Find Cabs" style="rounded=0;whiteSpace=wrap;html=1;sketch=1;hachureGap=4;jiggle=2;curveFitting=1;fontFamily=Architects Daughter;fontSource=https%3A%2F%2Ffonts.googleapis.com%2Fcss%3Ffamily%3DArchitects%2BDaughter;fontSize=20;" vertex="1" parent="1">
          <mxGeometry x="340" y="860" width="120" height="60" as="geometry" />
        </mxCell>
        <mxCell id="vcEVfHxHfkmR4wFx27v9-29" value="Pricing" style="rounded=0;whiteSpace=wrap;html=1;sketch=1;hachureGap=4;jiggle=2;curveFitting=1;fontFamily=Architects Daughter;fontSource=https%3A%2F%2Ffonts.googleapis.com%2Fcss%3Ffamily%3DArchitects%2BDaughter;fontSize=20;fontStyle=1" vertex="1" parent="1">
          <mxGeometry x="563.19" y="990" width="120" height="60" as="geometry" />
        </mxCell>
        <mxCell id="vcEVfHxHfkmR4wFx27v9-30" value="Maps&lt;br&gt;Route&lt;br&gt;ETA" style="whiteSpace=wrap;html=1;aspect=fixed;rounded=1;sketch=1;hachureGap=4;jiggle=2;curveFitting=1;fontFamily=Architects Daughter;fontSource=https%3A%2F%2Ffonts.googleapis.com%2Fcss%3Ffamily%3DArchitects%2BDaughter;fontSize=20;" vertex="1" parent="1">
          <mxGeometry x="574.16" y="850" width="80" height="80" as="geometry" />
        </mxCell>
        <mxCell id="vcEVfHxHfkmR4wFx27v9-31" value="Graph&lt;br&gt;db" style="shape=cylinder3;whiteSpace=wrap;html=1;boundedLbl=1;backgroundOutline=1;size=15;rounded=1;sketch=1;hachureGap=4;jiggle=2;curveFitting=1;fontFamily=Architects Daughter;fontSource=https%3A%2F%2Ffonts.googleapis.com%2Fcss%3Ffamily%3DArchitects%2BDaughter;fontSize=20;" vertex="1" parent="1">
          <mxGeometry x="1000" y="840" width="60" height="80" as="geometry" />
        </mxCell>
        <mxCell id="vcEVfHxHfkmR4wFx27v9-32" value="Location&lt;br&gt;Lat/Long" style="rounded=0;whiteSpace=wrap;html=1;sketch=1;hachureGap=4;jiggle=2;curveFitting=1;fontFamily=Architects Daughter;fontSource=https%3A%2F%2Ffonts.googleapis.com%2Fcss%3Ffamily%3DArchitects%2BDaughter;fontSize=20;" vertex="1" parent="1">
          <mxGeometry x="340" y="722.32" width="120" height="60" as="geometry" />
        </mxCell>
        <mxCell id="vcEVfHxHfkmR4wFx27v9-33" value="Redis" style="shape=cylinder3;whiteSpace=wrap;html=1;boundedLbl=1;backgroundOutline=1;size=15;rounded=1;sketch=1;hachureGap=4;jiggle=2;curveFitting=1;fontFamily=Architects Daughter;fontSource=https%3A%2F%2Ffonts.googleapis.com%2Fcss%3Ffamily%3DArchitects%2BDaughter;fontSize=20;" vertex="1" parent="1">
          <mxGeometry x="594.16" y="712.32" width="60" height="80" as="geometry" />
        </mxCell>
        <mxCell id="vcEVfHxHfkmR4wFx27v9-34" value="" style="endArrow=classic;startArrow=classic;html=1;rounded=1;sketch=1;hachureGap=4;jiggle=2;curveFitting=1;fontFamily=Architects Daughter;fontSource=https%3A%2F%2Ffonts.googleapis.com%2Fcss%3Ffamily%3DArchitects%2BDaughter;fontSize=16;exitX=1;exitY=0.5;exitDx=0;exitDy=0;entryX=0;entryY=0.5;entryDx=0;entryDy=0;" edge="1" parent="1" source="vcEVfHxHfkmR4wFx27v9-26" target="vcEVfHxHfkmR4wFx27v9-32">
          <mxGeometry width="50" height="50" relative="1" as="geometry">
            <mxPoint x="410" y="880" as="sourcePoint" />
            <mxPoint x="460" y="830" as="targetPoint" />
          </mxGeometry>
        </mxCell>
        <mxCell id="vcEVfHxHfkmR4wFx27v9-35" value="" style="endArrow=classic;startArrow=classic;html=1;rounded=1;sketch=1;hachureGap=4;jiggle=2;curveFitting=1;fontFamily=Architects Daughter;fontSource=https%3A%2F%2Ffonts.googleapis.com%2Fcss%3Ffamily%3DArchitects%2BDaughter;fontSize=16;exitX=1;exitY=0.5;exitDx=0;exitDy=0;entryX=-0.05;entryY=0.578;entryDx=0;entryDy=0;entryPerimeter=0;" edge="1" parent="1" source="vcEVfHxHfkmR4wFx27v9-27" target="vcEVfHxHfkmR4wFx27v9-32">
          <mxGeometry width="50" height="50" relative="1" as="geometry">
            <mxPoint x="410" y="880" as="sourcePoint" />
            <mxPoint x="460" y="830" as="targetPoint" />
          </mxGeometry>
        </mxCell>
        <mxCell id="vcEVfHxHfkmR4wFx27v9-36" value="" style="endArrow=classic;startArrow=classic;html=1;rounded=1;sketch=1;hachureGap=4;jiggle=2;curveFitting=1;fontFamily=Architects Daughter;fontSource=https%3A%2F%2Ffonts.googleapis.com%2Fcss%3Ffamily%3DArchitects%2BDaughter;fontSize=16;exitX=1;exitY=0.5;exitDx=0;exitDy=0;entryX=0;entryY=0.5;entryDx=0;entryDy=0;entryPerimeter=0;" edge="1" parent="1" source="vcEVfHxHfkmR4wFx27v9-32" target="vcEVfHxHfkmR4wFx27v9-33">
          <mxGeometry width="50" height="50" relative="1" as="geometry">
            <mxPoint x="410" y="880" as="sourcePoint" />
            <mxPoint x="460" y="830" as="targetPoint" />
          </mxGeometry>
        </mxCell>
        <mxCell id="vcEVfHxHfkmR4wFx27v9-37" value="Kafka" style="shape=partialRectangle;whiteSpace=wrap;html=1;left=0;right=0;fillColor=none;rounded=1;sketch=1;hachureGap=4;jiggle=2;curveFitting=1;fontFamily=Architects Daughter;fontSource=https%3A%2F%2Ffonts.googleapis.com%2Fcss%3Ffamily%3DArchitects%2BDaughter;fontSize=20;" vertex="1" parent="1">
          <mxGeometry x="324.16" y="820" width="580" height="10" as="geometry" />
        </mxCell>
        <mxCell id="vcEVfHxHfkmR4wFx27v9-38" value="NoSQL&lt;br&gt;Casandra" style="shape=cylinder3;whiteSpace=wrap;html=1;boundedLbl=1;backgroundOutline=1;size=15;rounded=1;sketch=1;hachureGap=4;jiggle=2;curveFitting=1;fontFamily=Architects Daughter;fontSource=https%3A%2F%2Ffonts.googleapis.com%2Fcss%3Ffamily%3DArchitects%2BDaughter;fontSize=20;" vertex="1" parent="1">
          <mxGeometry x="990.0000000000001" y="704.8" width="60" height="80" as="geometry" />
        </mxCell>
        <mxCell id="vcEVfHxHfkmR4wFx27v9-39" value="" style="endArrow=classic;startArrow=classic;html=1;rounded=1;sketch=1;hachureGap=4;jiggle=2;curveFitting=1;fontFamily=Architects Daughter;fontSource=https%3A%2F%2Ffonts.googleapis.com%2Fcss%3Ffamily%3DArchitects%2BDaughter;fontSize=16;entryX=0;entryY=0.5;entryDx=0;entryDy=0;" edge="1" parent="1" target="vcEVfHxHfkmR4wFx27v9-28">
          <mxGeometry width="50" height="50" relative="1" as="geometry">
            <mxPoint x="180" y="830" as="sourcePoint" />
            <mxPoint x="460" y="830" as="targetPoint" />
          </mxGeometry>
        </mxCell>
        <mxCell id="vcEVfHxHfkmR4wFx27v9-40" value="" style="endArrow=classic;startArrow=classic;html=1;rounded=1;sketch=1;hachureGap=4;jiggle=2;curveFitting=1;fontFamily=Architects Daughter;fontSource=https%3A%2F%2Ffonts.googleapis.com%2Fcss%3Ffamily%3DArchitects%2BDaughter;fontSize=16;exitX=1;exitY=0.5;exitDx=0;exitDy=0;entryX=0;entryY=0.5;entryDx=0;entryDy=0;" edge="1" parent="1" source="vcEVfHxHfkmR4wFx27v9-28" target="vcEVfHxHfkmR4wFx27v9-30">
          <mxGeometry width="50" height="50" relative="1" as="geometry">
            <mxPoint x="410" y="880" as="sourcePoint" />
            <mxPoint x="460" y="830" as="targetPoint" />
          </mxGeometry>
        </mxCell>
        <mxCell id="vcEVfHxHfkmR4wFx27v9-42" value="" style="endArrow=classic;startArrow=classic;html=1;rounded=1;sketch=1;hachureGap=4;jiggle=2;curveFitting=1;fontFamily=Architects Daughter;fontSource=https%3A%2F%2Ffonts.googleapis.com%2Fcss%3Ffamily%3DArchitects%2BDaughter;fontSize=16;exitX=0.5;exitY=0;exitDx=0;exitDy=0;entryX=0.381;entryY=1.058;entryDx=0;entryDy=0;entryPerimeter=0;" edge="1" parent="1" source="vcEVfHxHfkmR4wFx27v9-30" target="vcEVfHxHfkmR4wFx27v9-33">
          <mxGeometry width="50" height="50" relative="1" as="geometry">
            <mxPoint x="410" y="880" as="sourcePoint" />
            <mxPoint x="460" y="830" as="targetPoint" />
          </mxGeometry>
        </mxCell>
        <mxCell id="vcEVfHxHfkmR4wFx27v9-43" value="" style="endArrow=classic;startArrow=classic;html=1;rounded=1;sketch=1;hachureGap=4;jiggle=2;curveFitting=1;fontFamily=Architects Daughter;fontSource=https%3A%2F%2Ffonts.googleapis.com%2Fcss%3Ffamily%3DArchitects%2BDaughter;fontSize=16;exitX=1;exitY=0.5;exitDx=0;exitDy=0;entryX=0;entryY=0;entryDx=0;entryDy=52.5;entryPerimeter=0;" edge="1" parent="1" source="vcEVfHxHfkmR4wFx27v9-30" target="vcEVfHxHfkmR4wFx27v9-31">
          <mxGeometry width="50" height="50" relative="1" as="geometry">
            <mxPoint x="410" y="880" as="sourcePoint" />
            <mxPoint x="460" y="830" as="targetPoint" />
          </mxGeometry>
        </mxCell>
        <mxCell id="vcEVfHxHfkmR4wFx27v9-44" value="" style="endArrow=classic;startArrow=classic;html=1;rounded=1;sketch=1;hachureGap=4;jiggle=2;curveFitting=1;fontFamily=Architects Daughter;fontSource=https%3A%2F%2Ffonts.googleapis.com%2Fcss%3Ffamily%3DArchitects%2BDaughter;fontSize=16;entryX=0.5;entryY=1;entryDx=0;entryDy=0;" edge="1" parent="1" target="vcEVfHxHfkmR4wFx27v9-30">
          <mxGeometry width="50" height="50" relative="1" as="geometry">
            <mxPoint x="614" y="990" as="sourcePoint" />
            <mxPoint x="460" y="830" as="targetPoint" />
          </mxGeometry>
        </mxCell>
        <mxCell id="vcEVfHxHfkmR4wFx27v9-45" value="Payment" style="rounded=0;whiteSpace=wrap;html=1;sketch=1;hachureGap=4;jiggle=2;curveFitting=1;fontFamily=Architects Daughter;fontSource=https%3A%2F%2Ffonts.googleapis.com%2Fcss%3Ffamily%3DArchitects%2BDaughter;fontSize=20;" vertex="1" parent="1">
          <mxGeometry x="360.00000000000006" y="1180" width="120" height="60" as="geometry" />
        </mxCell>
        <mxCell id="vcEVfHxHfkmR4wFx27v9-46" value="" style="endArrow=classic;startArrow=classic;html=1;rounded=1;sketch=1;hachureGap=4;jiggle=2;curveFitting=1;fontFamily=Architects Daughter;fontSource=https%3A%2F%2Ffonts.googleapis.com%2Fcss%3Ffamily%3DArchitects%2BDaughter;fontSize=16;exitX=1;exitY=0.75;exitDx=0;exitDy=0;entryX=0;entryY=0.5;entryDx=0;entryDy=0;" edge="1" parent="1" source="vcEVfHxHfkmR4wFx27v9-27" target="vcEVfHxHfkmR4wFx27v9-45">
          <mxGeometry width="50" height="50" relative="1" as="geometry">
            <mxPoint x="410" y="930" as="sourcePoint" />
            <mxPoint x="350" y="1110" as="targetPoint" />
          </mxGeometry>
        </mxCell>
        <mxCell id="vcEVfHxHfkmR4wFx27v9-47" value="Stripe Gateway" style="rounded=0;whiteSpace=wrap;html=1;sketch=1;hachureGap=4;jiggle=2;curveFitting=1;fontFamily=Architects Daughter;fontSource=https%3A%2F%2Ffonts.googleapis.com%2Fcss%3Ffamily%3DArchitects%2BDaughter;fontSize=20;" vertex="1" parent="1">
          <mxGeometry x="576.23" y="1180" width="120" height="60" as="geometry" />
        </mxCell>
        <mxCell id="vcEVfHxHfkmR4wFx27v9-48" value="Book Cabs" style="rounded=0;whiteSpace=wrap;html=1;sketch=1;hachureGap=4;jiggle=2;curveFitting=1;fontFamily=Architects Daughter;fontSource=https%3A%2F%2Ffonts.googleapis.com%2Fcss%3Ffamily%3DArchitects%2BDaughter;fontSize=20;" vertex="1" parent="1">
          <mxGeometry x="360" y="1090" width="120" height="60" as="geometry" />
        </mxCell>
        <mxCell id="vcEVfHxHfkmR4wFx27v9-49" value="" style="endArrow=classic;startArrow=classic;html=1;rounded=1;sketch=1;hachureGap=4;jiggle=2;curveFitting=1;fontFamily=Architects Daughter;fontSource=https%3A%2F%2Ffonts.googleapis.com%2Fcss%3Ffamily%3DArchitects%2BDaughter;fontSize=16;exitX=0.75;exitY=1;exitDx=0;exitDy=0;" edge="1" parent="1" source="vcEVfHxHfkmR4wFx27v9-28" target="vcEVfHxHfkmR4wFx27v9-50">
          <mxGeometry width="50" height="50" relative="1" as="geometry">
            <mxPoint x="530" y="970" as="sourcePoint" />
            <mxPoint x="350" y="1080" as="targetPoint" />
          </mxGeometry>
        </mxCell>
        <mxCell id="vcEVfHxHfkmR4wFx27v9-50" value="Redis" style="shape=cylinder3;whiteSpace=wrap;html=1;boundedLbl=1;backgroundOutline=1;size=15;rounded=1;sketch=1;hachureGap=4;jiggle=2;curveFitting=1;fontFamily=Architects Daughter;fontSource=https%3A%2F%2Ffonts.googleapis.com%2Fcss%3Ffamily%3DArchitects%2BDaughter;fontSize=20;" vertex="1" parent="1">
          <mxGeometry x="493.87" y="910" width="60" height="80" as="geometry" />
        </mxCell>
        <mxCell id="vcEVfHxHfkmR4wFx27v9-51" value="" style="endArrow=classic;startArrow=classic;html=1;rounded=1;sketch=1;hachureGap=4;jiggle=2;curveFitting=1;fontFamily=Architects Daughter;fontSource=https%3A%2F%2Ffonts.googleapis.com%2Fcss%3Ffamily%3DArchitects%2BDaughter;fontSize=16;entryX=0;entryY=0.5;entryDx=0;entryDy=0;" edge="1" parent="1" target="vcEVfHxHfkmR4wFx27v9-48">
          <mxGeometry width="50" height="50" relative="1" as="geometry">
            <mxPoint x="180" y="850" as="sourcePoint" />
            <mxPoint x="350" y="1080" as="targetPoint" />
          </mxGeometry>
        </mxCell>
        <mxCell id="vcEVfHxHfkmR4wFx27v9-52" value="" style="endArrow=classic;startArrow=classic;html=1;rounded=1;sketch=1;hachureGap=4;jiggle=2;curveFitting=1;fontFamily=Architects Daughter;fontSource=https%3A%2F%2Ffonts.googleapis.com%2Fcss%3Ffamily%3DArchitects%2BDaughter;fontSize=16;exitX=1;exitY=0.5;exitDx=0;exitDy=0;entryX=0;entryY=0.5;entryDx=0;entryDy=0;" edge="1" parent="1" source="vcEVfHxHfkmR4wFx27v9-45" target="vcEVfHxHfkmR4wFx27v9-47">
          <mxGeometry width="50" height="50" relative="1" as="geometry">
            <mxPoint x="440" y="1140" as="sourcePoint" />
            <mxPoint x="490" y="1090" as="targetPoint" />
          </mxGeometry>
        </mxCell>
        <mxCell id="vcEVfHxHfkmR4wFx27v9-53" value="Trips&lt;br&gt;MySQL" style="shape=cylinder3;whiteSpace=wrap;html=1;boundedLbl=1;backgroundOutline=1;size=15;rounded=1;sketch=1;hachureGap=4;jiggle=2;curveFitting=1;fontFamily=Architects Daughter;fontSource=https%3A%2F%2Ffonts.googleapis.com%2Fcss%3Ffamily%3DArchitects%2BDaughter;fontSize=20;" vertex="1" parent="1">
          <mxGeometry x="1000" y="1025" width="60" height="80" as="geometry" />
        </mxCell>
        <mxCell id="vcEVfHxHfkmR4wFx27v9-55" value="Kafka" style="shape=partialRectangle;whiteSpace=wrap;html=1;left=0;right=0;fillColor=none;rounded=1;sketch=1;hachureGap=4;jiggle=2;curveFitting=1;fontFamily=Architects Daughter;fontSource=https%3A%2F%2Ffonts.googleapis.com%2Fcss%3Ffamily%3DArchitects%2BDaughter;fontSize=20;" vertex="1" parent="1">
          <mxGeometry x="357.84" y="1063.63" width="552.16" height="10" as="geometry" />
        </mxCell>
        <mxCell id="vcEVfHxHfkmR4wFx27v9-56" value="" style="shape=stencil(lVjZctswDPwav2JIgudzmv5HZuI0nqZxxnGvvy9YDxUDVNb2myxjJRyLJaAN370/P7xtN8G9Hw/779vfu8fj84a/bELYvT5vD7ujXG34fsN3T/vD9tth//P18fT77aFb9qsf+1/9CX9OOO8cOddhwf093XJUw/8bX0+Al93rGaA1ylHZR2KG9tyUfSH20D5of7wn1yDAZQ1IVAsAVGoaEDylBAFVhyAx1IoBOkccKaEkCUAHHT0FlKVKpWpAoYxjcEkBElNGMWTioAGNPHKJKeq0Zh5OrgJqo+g1oFDJABDJs6aSJw+oUSqxdqlEcoAaJVAwgAwLlxM1w+5KGWQpO2Jdh+oogBhSoqKpUT0V4FIUehuA5A10dBRu6qBrhh0XAyVduFrJA/JFZ2NojhKgBrfx9wII1CIENN1xLY40fOZS1PSWDkmgcPIGw6WuIyBLLA1kgl4Ivw5YVOgMUEDQIQ2qnQEaqINfOniRyg/5X0eEwbXzVwBAGVQ7s0e6FKy0dv0HzJCyFVuFCrrBTf7U0YDrAY+jY7HHUp8oRWsfgb2XVkgWgDTM54nZhRyIOPBw4FpAGwfBlS7JYVYnAAqa68RsnFXpTts7uGwr/Y95wYXSRFREPOYh09cyu0xpxa0j3DNBX+zOaMeGCwIgOcnWHilMXOlmJGHejmJdI2E3u6nMSIRvt8/G/wh55yd70Sd0sE3xCnHB84ttzVogJUR+vZajmuB4IQpv9KjyON0/a/6iaS3jhUd9kMe4v0w88ggwU0W2iicjEnpDmqogQ1gAA0yqVrQLD6KvD2GRsuaRDJJIInOzjZbxuN0dMLOtpAHEICFmnVYZtx2iUp3mcxnoQdBSJqddurAylKV3r1xKOuCmtafculh1gA76wuomgKIBF5ZDASTt0oX1UwDRcAnut538t+zPpdhND+/n/fne2GdkP63PMmIBf6qzo7nsLyChNcz2Hhw5sqy0ZOwdOtKKnS3wmSkKHfgW+zDmiOv8acl+v8DxyiQUbL1QPvvmb/1B9WrTdIf5cPMHoSsAcvHx/elp9/Jy+nx1/r/9XiW3Tt+6+P4f);lineShape=1;strokeColor=default;rounded=1;sketch=1;hachureGap=4;jiggle=2;curveFitting=1;fontFamily=Architects Daughter;fontSource=https%3A%2F%2Ffonts.googleapis.com%2Fcss%3Ffamily%3DArchitects%2BDaughter;fontSize=20;" vertex="1" parent="1">
          <mxGeometry x="396.44040648198734" y="924.8761784442929" width="10.191662836886735" height="137.85854020106217" as="geometry" />
        </mxCell>
        <mxCell id="vcEVfHxHfkmR4wFx27v9-57" value="" style="shape=stencil(lVfLctswDPwaXTEEwec5Tf8jM3FqT1074zh9/H2hapQYULUa32SaSwILLAAO8vC2f3rdDTG8XS/n77tfh+frfpAvQ4yH0353OVz1a5DHQR5ezpfdt8v5/fQ8/X59GneOXz/OP8cTfk+4xCRhRMXwZ1rpmWL7t/J1AhwPp1uAUE4G0BKVCgCRWjaAWiljgDQLCDT+XAUw9WIAJVJHNzBle0POVAsEBMtS6sQdANRia5LyJrwOkEzFAkSogjjESsnSqishrwO4UneAAFkK3ucyL/z/fM9pIgZBK1TZWkNJwOnJZ5GGBAQgZmLLp0YEsCOFcnb7kbepUhO3X0AGZd3Pzn4B55dMqTh+Ksif0ql7+hOwRyXV7P5CAvgpjYLd36AAClOz9neYzlmrRLf8hFnVa1WCbXoyU0EKC/PftwBwA3cqyQMYKUBTIDqfO+BI/PltlvSKHsXrsQDFBH96opoAn/Nhn/mG6OdFfJkSKle81FcCxUeirw+qR9QD0lLvDM7PykZw+ztgswhFz09E+m2eH5kL2Joeu83/DPV+7/6m9dAls2YbAPQ4x+fD4UwBAZofDLSDoQ7AYdFhNppk7xStTRttWG0qdzV6BYhNu41RoldfRzeGFQUkWyQ2xqGundJm3sbApT50y9LGSKcAtjfonQn5sBhWRq9QHNirWe9E7b5pO3YAHOn20X5vABXcUGXRDgJu+aV4r7cQWev/wgtkVNaZL9/jdmq+rG4Qq3WyuHkfh27ss1bWY3IAkd7/otgG6MfnA+blcDxO75/b//2DR5emx5I8/gU=);lineShape=1;strokeColor=default;rounded=1;sketch=1;hachureGap=4;jiggle=2;curveFitting=1;fontFamily=Architects Daughter;fontSource=https%3A%2F%2Ffonts.googleapis.com%2Fcss%3Ffamily%3DArchitects%2BDaughter;fontSize=20;" vertex="1" parent="1">
          <mxGeometry x="399.46726707416724" y="784.7992171980341" width="5.750166143584238" height="34.84667833640037" as="geometry" />
        </mxCell>
        <mxCell id="vcEVfHxHfkmR4wFx27v9-58" value="" style="shape=stencil(lVbLbhsxDPyavQ4kUQ/qnKb/ESBOvahrB47TNn8fqotNQsFLVzetliOSwyGlie5e9g/Puym4l8v59HP3Z3687Cf6NoUwH/e783yR1UT3E909nc67H+fT6/Fx+X5+aJZt9ev0u53wd8HVgpQaKri3ZccnBP9v5/sCOMzHrwBGYAUgRjIA3jk4pxBMqJaLAtIuuMLlbYD8Zu2hErIBKLye9wEoCGkbkAlUNKAixm1AlPOq5vWTh6sI8ogaIVQzG8QWZNKADF+NrOG7pAPa56YDeJ0zl5WFq/auT5nDesJ1jpCDsi8SocGpJxRd5hLAtA0IGUlHlCuyFZFH1SFlUYoh1cTwbgRQCJFGQuIM8iNJ19R3T6PV0LYouWgPN+rWdKlz4I+OvQ6QiOOI8iQA6qRqS1tYT90EsJsnBeTB/szImqY2Aiz1iZi6/pShYOnbrTn+5xgLfURtThqVHh3Eo/YeRXfPjashIA7dPdTrznskg9CC2sUPZ4jIR0TNZzLplPirrpcUxFIQreNttXemRmNEKJ29pdCUUGjAPmdwHohH5ojzA/ly6sevzacMBT9SrzYTND9ND5aD4cfObYAsPt9WT/PhsDzNvv7v32Kytbzj6P4d);lineShape=1;strokeColor=default;rounded=1;sketch=1;hachureGap=4;jiggle=2;curveFitting=1;fontFamily=Architects Daughter;fontSource=https%3A%2F%2Ffonts.googleapis.com%2Fcss%3Ffamily%3DArchitects%2BDaughter;fontSize=20;" vertex="1" parent="1">
          <mxGeometry x="641.7959458248718" y="1045.3913315361576" width="3.408108350256498" height="10.575344823826754" as="geometry" />
        </mxCell>
        <mxCell id="vcEVfHxHfkmR4wFx27v9-59" value="" style="shape=stencil(nVjbUhsxDP2avGrku/xM6X8wQyiZUsIE6OXvq23Gm7W8ewJ9C0Entizp6Ei7cPP6ePey33l+fTsdv+9/He7fHnfhy877w/Pj/nR400+7cLsLNw/H0/7b6fj+fH/+++Vuspw+/Tj+nH7h9xnnKMUJ5PnP+Qsm5n9ffD2bPx2eF+ZCIRvzlLfNXaDc2ztyDthXKtHYC/h9nymXzt6TlG37EMlJZx/Jx2376MlxZ5+JZds+sbXXB0P2hbLxVx8obQNypJh6gHoAPC5Mub+RK1TACSVR7a+kMYgBpISmQH+CTxQ8AAw++EoeRFn0xrUDhECubgOqXin0gEIMXql6m3eRSUCiVvWhT7wY2zOsAxKJ7wFCDOJQM9UekLRWkdPFnpASORC4KpT6OCRp5boOqOT6E7Inj3yoll2yPgMGiKm32h56nTB45quGKIEYZN8aIlMCCL1UdT1ArwmqWgHFsECAtKGA2L+TKM8AXlKA768kV0PHPUBrpCKnhaQvIa0RwdmU+2zSGkHcp4DYc7GmPPRBAX36TZdEFaHka5yukO4VwN4CUH/TmktiAZA3ysoJFZ2QrdOLBN5kmjAcgUKdVp6poFBHS01TAqOyjrYgJirB9Gr6uoYGdS0FSLSAiF/JKAEFOAywVyqYBXLjxgWgoCaUm9b5KKC0xry8Em4Rhskmp1EcZPBBnxUD4nBCwUUdzLPWa13LRQuIuEbLACiIBQr5sUZRASlvfbJG82dpIFm9cWmVWwAeWCBdqdFkAR6zgNH2Ex2jdP0PgJgrZShFp1cyJ6jgx88qhgU87kGZgmEybuJ0Mzd67aqd+kpLMYETVeSYBbw5ASugqWkZAVSxKitNeH5UMY2AgPV3odADVPclFOnSSGKhLCuW02XQrlCe5JY5C3UsiDaSZWPV3wEB4qC/HY5DGIaOmT23xhrXn6BTCmwQPJzgWnatj2aDxNJJK6NpMdmJV2c55LTMYZoBmFuL2OFPh3Y0U5fYeuAMwKmRxY7ITiAZa6rV3geXmqxb3wtk2xWdbxWyvqiobV6YealJrnV7ZweIAhWcBskwa2pyf2sxw31BR7gTcHOvmaNMAfy+C9be47Sz/dZDkeHaeuGyhsrg9tza2MU8gbJkOzS4NgltmIdgzNHTsK1515TuhjnbjRuqrmF4Zpj5w68zZSAf2XIuw37P7SEu5miPNKzCuEnJrahWY44WNkNFYZr65OL1qrl+uOx4Hw5PT+cV8fL/diesX533yeH2Lw==);lineShape=1;strokeColor=default;rounded=1;sketch=1;hachureGap=4;jiggle=2;curveFitting=1;fontFamily=Architects Daughter;fontSource=https%3A%2F%2Ffonts.googleapis.com%2Fcss%3Ffamily%3DArchitects%2BDaughter;fontSize=20;" vertex="1" parent="1">
          <mxGeometry x="654.3679757000366" y="922.8750066725179" width="83.0098380055847" height="138.76097412216382" as="geometry" />
        </mxCell>
        <mxCell id="vcEVfHxHfkmR4wFx27v9-60" value="" style="shape=stencil(lVhJcttADHwNryjMPnN2nH+4ynKkimK5ZDnL7wNGGUoANa3yjaK6SaLRWMgpPLxvn942k+f30/HwffNr93zaTuHL5P3udbs57k5yNIXHKTy8HI6bb8fDx+vz+ffb04ycj34cfs5X+H3mOWp+Jnn+cz7REnH4d+brGb/fvV7ha/93wUeqdYx3nmKyBO8BoVAyhEDcxgQfKJkQHLk0JgS2hCpRIUIlVzRB7hnHhJioVUUohTJQKQVqrAlMJY8J2VHShBzIMSBUSk4RUiIPgi6SV32HKDE44Awmr+8QJQaQuBopapWCeA/IWsUaTROYIgi6NmrarT53v98kNN+9uRA8FRC0eNPY21UKINPiftYxSIU0RFjdIZEDBSr4oPMWYIHO19fm9pTx9ZuJuDtrFHDWATNl4DvpP9kZPIw3r/EMPNFWJhLfApe2avXnLsBtfOt1eNGnoedvFLPJl0N6Nlv5ERuuWUuLwEif2tOzdBbKoChFzxp164I1KfmqpjfCLiF+qMXicYGZiVYogE4qeBdMvAnXSypGz3SnHk1b7AU6xJuuCAey4Iv2j6OK441aH+6zZ6S/X9ULun4mXwz+Tj2u8Gh6iz9dNfiM67c5ow/Mb6Ng+2FBz/9JvONFj+WBJIV3OorOmMyYhAjFlow8U0Ia5T53r+bk/6yM5qQZAvNShVTilauXOro9umVQ6xhkC2O0fnjb16PICu4gK5nThZMYLmllWWcWQu29+/bOFSjrGHKmCPIgK5ntXbi5x1XzrQ5aI7SuyUIo0HxBuolZxz1cA6W9ZW3v2V0gaDGz13mQkg2I4KlqleYZirxk60fwFYXQjbbUG+Me5vrbwNUNGpiZzu6Agi8Az3aFmgMGAbBtSXMTBAKxHYGXpWeANwJdOs4IzxaP2gvbFWpe8oAjJF5v8WiGiJ4Gn+D13SreRAHm177zpm7BAf5zL+H38XJweeN/2e335w8G1//bLwRy6vx1ITz+BQ==);lineShape=1;strokeColor=default;rounded=1;sketch=1;hachureGap=4;jiggle=2;curveFitting=1;fontFamily=Architects Daughter;fontSource=https%3A%2F%2Ffonts.googleapis.com%2Fcss%3Ffamily%3DArchitects%2BDaughter;fontSize=20;" vertex="1" parent="1">
          <mxGeometry x="483.3105546241636" y="1072.1073215887307" width="60.52197661863784" height="48.08764193391039" as="geometry" />
        </mxCell>
        <mxCell id="vcEVfHxHfkmR4wFx27v9-61" value="" style="shape=stencil(fZbLUsMwDEW/JluNbdmWvObxH52h0AylZUp5/T0yIW5lEu0SJyeypHsVD3jzttu8bofg3s6n4/P2c3w47wa8HUIYD7vtaTzL1YB3A948Hk/bp9Px/fAw3b9u6pv16uX4Ub/wNXHMgKFSwX1PK+gh5N+V+wnYj4croCQoUQHRA1tAAcoKSBEwmkD0CsgEWAwgQtEAFchpHeAMpHPgAhzWAUo9UDKwESEjOFaAdw6cWyeS64nCc6UXAWRwRQMIxOtAkFbrCJzAGZ0LHoruHEkEIwdfIHWdc8DWlkRrpMVEZtKBwGkAMwSjEfIYnQLqJ4xW1w3oKtVNGoCk2KlPyhCNstYihj5CMSLUNnVbklYaSVchaGlUsZABcG/qKkcjhys1t1ajHaIZpompmWo562bJJtdsAhfTN0O0wbDcOYKoc7iMnmWPyuDKPUBGmepo7Dwq4xMNuYrWNFAHtLElATp9Xyb6muWwiyBqMbbkA7C2HGUoxhQQQ6JWBs8rywF6YSQ2DfdPeWJZy28O6N/ISFbTwOv9S0be+sHNI675P5tDzxPkbtKb9akDq3Pz/IFlSRAkbWY3LyznyxBT9775pyrgdUHDPJ/+3peLy3njcdzvp+PK9fP+fCJL09kG734A);lineShape=1;strokeColor=default;rounded=1;sketch=1;hachureGap=4;jiggle=2;curveFitting=1;fontFamily=Architects Daughter;fontSource=https%3A%2F%2Ffonts.googleapis.com%2Fcss%3Ffamily%3DArchitects%2BDaughter;fontSize=20;" vertex="1" parent="1">
          <mxGeometry x="486.71635455482283" y="1122.218648759704" width="3.943354247905745" height="3.9410987922151435" as="geometry" />
        </mxCell>
        <mxCell id="vcEVfHxHfkmR4wFx27v9-62" value="" style="shape=stencil(rVjbThtBDP2avFqeu+eZ0v9AIpSolKAAvfx9vY1mWXuzJ0LqW1iOZ3w5vs0u3bw+3r3sd5Ff307H7/tfh/u3x136sovx8Py4Px3e9Ncu3e7SzcPxtP92Or4/35//frmbkNOvH8ef0wm/z3JMtU5Ckf+cP3ShIP++fD3jnw7PC3yi2DyeAb5QEYtv1Oo2Xqhljw9pGx8ScbcClZiBgN7AViBTitsCakIOViASF+AiVSkZAenQpzlQtCpJoQZUyp2y9aoEEuCl0qhYL7VGFdhQC8VoBdL4clGgBerFCFR1NLhhUsAyqWaKwEsSKVtqlA5vkErRxqGoVQEIaJhsMhQeSl4U6MHHIVeYDT1Rsipp7FMHApnEki9VauiGmf2zQKSYoUC3ArGRgAzVhCw2DloUEFtVoFsvhU6CVBJKVqVQYQKpQLFsDZEEUEMFqisz1LFG1WrURlHYVMgySeOIiKQWW3yAVW/CW5cyCSh6is8en7FDa3H4iPWR5vCM7NVMix6P9O+UVuejeHUfL6aA0qyPpFr4B9nbfdIwtSt4m/eBGOWYJkh3+Iz90zx/Kra3NIfvKIXV/y7nYQtUPIvHY77J6nzM5+oSngTpr/z3/inI/+L5FnARXeUvU8f1ISeHL1cKnOdnwue37vAB4bsfWTS/MD768xnzp/jzYX3rI50W9uJ8X9Wf+ql85DG+/Bd8YPZtOOOmqhdYA9rVAmTngsDXMtIN1toi+5US4W6oIyk2a7rlxEQKTGoXZHUSrOoymsosIHBknHYH28Z0GGrIhuLjnBouvNkvBzlSQDZEKo4YdYT+sgD7BacEOG5JG0SYBSq0QZL3Ug2QS0189uu6UAG728rohvuxntesW1sea9vlBUd8AWt9WLW1QrkOq25IwAYd1F0JVkdHEDhdA10P0VCifSXOS98skMaYurXKusH6g79by3JabddoDZQxFS+2fQF9YW1BH5HfeE1IKzzaDNifvyi0GwKl+As6qBg8trElHhisY/Hq/AaIzaM4LPAoxOxzWfEZ44PHo8F91aamSQDa69JsIgT0fwgeXyE+rvCoD/KK0PPuuMUH9nj0JPDZ57HreP3x8Rb3cHh6Oj/lLf/v3+700/ndL93+BQ==);lineShape=1;strokeColor=default;rounded=1;sketch=1;hachureGap=4;jiggle=2;curveFitting=1;fontFamily=Architects Daughter;fontSource=https%3A%2F%2Ffonts.googleapis.com%2Fcss%3Ffamily%3DArchitects%2BDaughter;fontSize=20;" vertex="1" parent="1">
          <mxGeometry x="480.36860884741577" y="1063.6257380712545" width="164.15923741279948" height="124.50867008032401" as="geometry" />
        </mxCell>
        <mxCell id="vcEVfHxHfkmR4wFx27v9-63" value="" style="shape=stencil(7VnJUhtBDP0aX1Wt3vtMyH9QhQmuEEwZZ/v7aOJqM1J73piccuBmBr1prU9SzybcvD7evWw33r0eD/uv25+7++PjJnzaeL97ftwedkf5tQm3m3DzsD9svxz235/vT3+/3E2S069v+x/TG36dcI5imEDe/T49aJVK/Pvk80n+afc8ky9UvZZPlN2yPEdyTQMCuboM8Ey5aoAj5mVAEBP0CTVTaMuA6ChEDWBqeRmQXDexA0qGTsqOfNEARw3YkKs1OkfKQKWSKGkbUiXvlwHVdY3PAIYn1EhR2xATuQAA2aZGEKuAl2olp08InhJIDQGYOEg6OnxC1dntfU/HJUDTAC5UkNEC0DZwoLpygs5WluwqEFCyzlYchkqRdaCpojjL63TYIjGSLxS0xb6/YEneJW0wMQpyIa/1l9IBBCPypnTEnyv+CUYesUVtFL2R90CfNpCF62l+WZ6pWv0den8Y/QPlo6XHFX1ST8cr7c2dRq7zZys2P3G8RH7wD8oH6V9OEx3ON5FPOr6+V+iSfLP1UgG1t0Ze53+GvCvyWctjFmV3jv/ZYE+MLJAT2AIKMkFKRodASI5RDuVOmjNAQkGOtp0JoCQAEBMHQEU00ag0C8io7oX4vQVERHS58+YMAJkxkc82Dgm1s0QcLGDlhGICx5RApMVoewLDaU3catldBg1Md2b4YgcHyHZOhGsBeSCAFZVKn/6uNFoKKPB73CoAewIOnADqEGmUGm0cXHDytaGNr6S39IXgLAAVkJRoSxaASlQ6ZxoAiASklYeh4hDNSIla5sNEJgVkmQ9TpQDMurNCxv8CiGZ7wVO2jH9aHvefica0ybi/iXyy8yDqnx/z4Mc8+F/Pg0PfX6HqYrdYvD9N/tH64/1M5IPWB+9/U/szlIUXzAkwsCj0aLYb47Qko+aU7MgsPkVXOgIo46KPk5SHq4SM5sfQ72NmlxUrc4uZUGPqhbc4P5o4c3fDZYDvvWt2pZOAStMdkK7knODtRi621xTuzeTyxZcMCVqlIk+AW6OcoN1acRxCsd3mbQS9fD1YLf02XP9S7s7ccOL05tinlDMg9zlj4UrULGwyvSUQ6NJzfyZfgEKZorPyFUXNZuo0fgL5aBvUbKW8HLRO0NcC/HCl2/pseDkEfeKYWwwiwJaCJ4+CCMigOXg0AX2cXTanDQDoM2zkIs/4/Ua+woi999J+XV5+vH0heNg9PZ0+MMz/b78oyKPT14hw+wc=);lineShape=1;strokeColor=default;rounded=1;sketch=1;hachureGap=4;jiggle=2;curveFitting=1;fontFamily=Architects Daughter;fontSource=https%3A%2F%2Ffonts.googleapis.com%2Fcss%3Ffamily%3DArchitects%2BDaughter;fontSize=20;" vertex="1" parent="1">
          <mxGeometry x="663.359644302451" y="1051.700716879811" width="28.246018289095673" height="130.43402270368347" as="geometry" />
        </mxCell>
        <mxCell id="vcEVfHxHfkmR4wFx27v9-64" value="" style="shape=stencil(fZbLUsMwDEW/JluNbdmWvObxH52h0AylZUp5/T0yIW5lEu0SJyeypHsVD3jzttu8bofg3s6n4/P2c3w47wa8HUIYD7vtaTzL1YB3A948Hk/bp9Px/fAw3b9u6pv16uX4Ub/wNXHMgKFSwX1PK+gh5N+V+wnYj4croCQoUQHRA1tAAcoKSBEwmkD0CsgEWAwgQtEAFchpHeAMpHPgAhzWAUo9UDKwESEjOFaAdw6cWyeS64nCc6UXAWRwRQMIxOtAkFbrCJzAGZ0LHoruHEkEIwdfIHWdc8DWlkRrpMVEZtKBwGkAMwSjEfIYnQLqJ4xW1w3oKtVNGoCk2KlPyhCNstYihj5CMSLUNnVbklYaSVchaGlUsZABcG/qKkcjhys1t1ajHaIZpompmWo562bJJtdsAhfTN0O0wbDcOYKoc7iMnmWPyuDKPUBGmepo7Dwq4xMNuYrWNFAHtLElATp9Xyb6muWwiyBqMbbkA7C2HGUoxhQQQ6JWBs8rywF6YSQ2DfdPeWJZy28O6N/ISFbTwOv9S0be+sHNI675P5tDzxPkbtKb9akDq3Pz/IFlSRAkbWY3LyznyxBT9775pyrgdUHDPJ/+3peLy3njcdzvp+PK9fP+fCJL09kG734A);lineShape=1;strokeColor=default;rounded=1;sketch=1;hachureGap=4;jiggle=2;curveFitting=1;fontFamily=Architects Daughter;fontSource=https%3A%2F%2Ffonts.googleapis.com%2Fcss%3Ffamily%3DArchitects%2BDaughter;fontSize=20;" vertex="1" parent="1">
          <mxGeometry x="687.7163545548228" y="1078.218648759704" width="3.943354247905745" height="3.9410987922151435" as="geometry" />
        </mxCell>
        <mxCell id="vcEVfHxHfkmR4wFx27v9-65" value="" style="shape=stencil(fZbLUsMwDEW/JluNbdmWvObxH52h0AylZUp5/T0yIW5lEu0SJyeypHsVD3jzttu8bofg3s6n4/P2c3w47wa8HUIYD7vtaTzL1YB3A948Hk/bp9Px/fAw3b9u6pv16uX4Ub/wNXHMgKFSwX1PK+gh5N+V+wnYj4croCQoUQHRA1tAAcoKSBEwmkD0CsgEWAwgQtEAFchpHeAMpHPgAhzWAUo9UDKwESEjOFaAdw6cWyeS64nCc6UXAWRwRQMIxOtAkFbrCJzAGZ0LHoruHEkEIwdfIHWdc8DWlkRrpMVEZtKBwGkAMwSjEfIYnQLqJ4xW1w3oKtVNGoCk2KlPyhCNstYihj5CMSLUNnVbklYaSVchaGlUsZABcG/qKkcjhys1t1ajHaIZpompmWo562bJJtdsAhfTN0O0wbDcOYKoc7iMnmWPyuDKPUBGmepo7Dwq4xMNuYrWNFAHtLElATp9Xyb6muWwiyBqMbbkA7C2HGUoxhQQQ6JWBs8rywF6YSQ2DfdPeWJZy28O6N/ISFbTwOv9S0be+sHNI675P5tDzxPkbtKb9akDq3Pz/IFlSRAkbWY3LyznyxBT9775pyrgdUHDPJ/+3peLy3njcdzvp+PK9fP+fCJL09kG734A);lineShape=1;strokeColor=default;rounded=1;sketch=1;hachureGap=4;jiggle=2;curveFitting=1;fontFamily=Architects Daughter;fontSource=https%3A%2F%2Ffonts.googleapis.com%2Fcss%3Ffamily%3DArchitects%2BDaughter;fontSize=20;" vertex="1" parent="1">
          <mxGeometry x="794.7163545548228" y="997.2186487597039" width="3.943354247905745" height="3.9410987922151435" as="geometry" />
        </mxCell>
        <mxCell id="vcEVfHxHfkmR4wFx27v9-66" value="" style="shape=stencil(7VjLbhsxDPwaXwmJelA8p+l/BIjTGE3jwHFff18uFussaXva9Fagt/WaI1HkDMnVpty8Pt69bDecXo+H/eft99398XFTPmyYd8+P28PuaE+bcrspNw/7w/bTYf/1+X7+/XI3WU5PX/bfphV+zLjWqJUJxenn/IYbjfnNxxnwtHteAWqlLg5QlDRfB7DSyA7QlHq7DshK4neQQgnskDvlAOikCgCFlD1gkHQAyFS7B9gZQJQGaY32Ddh3ajk6VMEJKpUcT9zAAZjqWUgHOjCl4e0T9D8RN2ffO8lA9il5e6bByL74+LdBA6yfY3yM5xnEkxdvT/aZVFD8xa9flWqCFE1BNY0KALBERtietV4HlEFdHSC3heWXj2C69C4pMdjAMpRCjokBJcS29zkz2QnIwbCIhFJkQQBJ1rxw5pQFpoIqSzrjnekM1SI12fqompcZRFWF1O9gXiYQVrX1AsAKMGCGrVc9V9W0gOIqVH1cV3G4jChUAjUUVmCrbuIzoR0D+hn58pL9a2zKOSaiggomdSnQqxIMXWoxrsKQG2Ls9GfoskjkclgTdb/DVPVQHmp0qVshBGQaYxHMqtcqCKsytSDqTB3x21QdXGrECHBqZKtWgkRqVBuhd1pvQ4LQpRWcqMGw/ZtL3Utu6DJBXAbYgOFdUmvAqDLxMk6sNJrADpa4EaqAwgZt1JAzQEM7pDPFCTHSg8QepwXS2wTU/KHHqYldlagP68iUQVjfDehjYc5qbsiAS6avUDVqgRKtIzYI66so00ViHpr1UTS6SdRDP+X+/zgMxmGQhL8Yh89q2L8+DjOaPt8/Dnv/fzMOS6x21eYBNLhJ/CS08RkluHBsU7ZEBbVokrkXfoHzeW3xyKYJNG1L/Ao2jgBGN6MEB3s0sjVeuvCbfQMRbZVYgv/oa8GKVJj+6+LgZXuJJcIUACYXI3ANEyS8VZgIH/wvcKwwgITvow41P3UKv8OUMnQEid94xiGY4/fevfwBwB7ernoedk9P803R+v94NWSv5mulcvsL);lineShape=1;strokeColor=default;rounded=1;sketch=1;hachureGap=4;jiggle=2;curveFitting=1;fontFamily=Architects Daughter;fontSource=https%3A%2F%2Ffonts.googleapis.com%2Fcss%3Ffamily%3DArchitects%2BDaughter;fontSize=20;" vertex="1" parent="1">
          <mxGeometry x="533.2892987558241" y="1076.2917345557337" width="18.539983227611856" height="11.726847278443984" as="geometry" />
        </mxCell>
        <mxCell id="vcEVfHxHfkmR4wFx27v9-67" value="" style="shape=stencil(7VjLbhsxDPwaXwm9KInnNP2PAHEao2kcOE4ff19uXblL7u4UvRVob85GsxqRwyG1u3zz+nj3st+l8Ho+HT/uvxzuz4+7/G6X0uH5cX86nPXXLt/u8s3D8bT/cDq+Pd9f/n65m1ZOvz4dP09v+HrBcSIJEyqFb5cnsVPvP568vwCeDs8zQCkkbAA5EMs2IHeSaAAlUEGATEEsQEgApdSILSUWym0boEeMllJj4goAyZ+hxxG3dUCkXC0gU8nbABkxvK4vlMGZG7Xk1zdAiKnz4v3gxMXnQPkjPsmnQAPUwXk1Pi4DQg2IQiVT7PoG+QQKVtZN41PgescnUQD8lU8z66tQQYKgbONT22C4Ec9q+dQCa6BSsvHRws4o/pmqTXDm8Yp1QhqP7o3iJ8d1gAbESrRRYegTxW4QYISKFrFNgSoOKIh5BGSsV5MAB65hvG52YFTClT2h1KEzqmS80UUouqZJW2Q5gJh2PYO1IT1VAIcWpmIBuicDK5XmjaVVaESykIWSbMisw6KWO49q2tqCbZi6NhBgdtK9tqWMDrEVpuYADXYcSdStNqY4gB2UcbWJmMVhHVGJg98iAPn1hQWIpg6ESS2dLSfJlMCpNbPZZa5DF1NAsGGa2hTQ6yRwC9A+gvpOT76EtPULAiyqWisC1lyn5FpJHM62ro246G3aLUDiVJxsnUybFWqeKs6Y/aEZ2YAs2ic2SwWIq+pMHdtAdxNVh+1Ba7S6CkrjFeuAStVS0ieo5FTMzvAFj8ISxkgxqzhB9aCDavIARloqw3xnPlNRAf0pYOpBi0E1gjPUxRygWipAGnyt4GsPSpQSAISh/mtb7KNo1yeBSsGGNZchls1Rw1KaOjWIUo5DObM7DJyW1FttxXEdT9a7XFsMoGptYId/8UoSg+f//0pi+PxVV5Lmq3KaqMH6WL3DF4YCmjJsAbmO3rsO6N5/J5IgBXonCjbHSrID7yqLOU9jhKyr+Okiwx6lEXEzW4KaK82bLzaJIj5pCWpCvdr5XILtZrqvuGsn5MPZT5AMjVqbTbTvb9B2db0zresgs7XemZb6MBqMFMDu2qxbIkbZT1IqOQEzwvoXPHQR/v0nP/3x64Phw+Hp6fK9cf5//4FRH10+Tubb7w==);lineShape=1;strokeColor=default;rounded=1;sketch=1;hachureGap=4;jiggle=2;curveFitting=1;fontFamily=Architects Daughter;fontSource=https%3A%2F%2Ffonts.googleapis.com%2Fcss%3Ffamily%3DArchitects%2BDaughter;fontSize=20;" vertex="1" parent="1">
          <mxGeometry x="631.727258306745" y="1078.9666158109742" width="24.585346949146015" height="17.06938050168401" as="geometry" />
        </mxCell>
        <mxCell id="vcEVfHxHfkmR4wFx27v9-68" value="" style="shape=stencil(lVbZctswDPwavWJ4E3hO0//ITJzaU9fOOE6Pvy9UmaoIRevJm0wvSGCxOIb48LZ/et0Nwb1dL+fvu1+H5+t+iF+GEA6n/e5yuOrXEB+H+PByvuy+Xc7vp+fp9+vTiBy/fpx/jjf8nuyEKcXRKrg/txPK9d/B1wl/PJwWeA5UXIcPmarbNqiefOgMYqVStg0yU+gNsqMYtw1SpCKdQUlUwQuhUOgN2JMAA6ZsOGIqwKNKoedIlNQEQm63LfAiIGJyfoUPIGBKbPExb+M9hVW8Efiv+ak9vkD/HTnDT6YE/HHkc4+PxECkjrhXkCgDgB/f2JvxygDQQ2zszXhHCebrpq4FPgB/SivB5f2AHya38t/zNl5WfAaKwB8hLpb/ivSjCTYP5DsPVBNAgQlmEiMgbRpAoNpxVgUQQMIK+WrxDBN8K++G927W+EZFyuqBAvCeircBV0CoW+ErJVgxzviTSYCCFN8HLIkirHhDkCqOwf2esvHf3+Hnk3i2JV9TS8nHJV/I9TWQa+P4457ubJNIGjIomqKa6Ltu1L6HRJ1aSmfVMRyULM2B2YAqSJp2HeORHoCQNadm7ikHIAnaRTIbPCoa1ZiIxYN4tYmYFGgbRfdXymL4cWAMjFtAL6KA/Zf2/Jzh1oi38KbvJjgGFk1nFmmbhJsP9PiK54a0sTgvTtChzy6X9/H68X+TfTkcj9MivPzfbr56NG3N8fEv);lineShape=1;strokeColor=default;rounded=1;sketch=1;hachureGap=4;jiggle=2;curveFitting=1;fontFamily=Architects Daughter;fontSource=https%3A%2F%2Ffonts.googleapis.com%2Fcss%3Ffamily%3DArchitects%2BDaughter;fontSize=20;" vertex="1" parent="1">
          <mxGeometry x="668.6785524765298" y="1078.7720335066474" width="21.054790232704363" height="21.621886486742824" as="geometry" />
        </mxCell>
        <mxCell id="vcEVfHxHfkmR4wFx27v9-69" value="" style="shape=stencil(lVbLbuMwDPwaXwlRb5273f8o0HRjbDYp0nQff78UDKmhbE/Rm+NwTHE4Q3FyD2/Hp9fDZM3b7Xr5efgzP9+Ok/s2WTufj4frfJOnyT1O7uHlcj38uF7ez8/L79enGlmffl1+1y/8XXBcyKWKsubf8sZRWF58X+JP8/ku3ibKVsWzpWT2AZ7JOwWwgbjsA4Jv3+sniuTDPiAmslEBfKQU9wEpktEAyencPiB78pqk6MjyPqAkijpDFhoyABQKmlbJWUANbAwZTVPOlEDnJMVQdbEt6TYgUtYZSqCMqnbkvQZksqDVWcQXNKBQAkeqpKwABXXOUOLxSAXUkNKKpQhpTSKdogEO1pAsFS2mIq0E2lgDciQLDFGPNAAsxU+K1h5NokegPqE16gzyCQ+mQG2c7oOY0AFaqzRWADSYqvjMeKSCLNf72lky5EHR1UBa3lk67b/mUaEJGKKOAd2IwuQAr3XQZA2Q8Ymq9uNkkk9AXs1IUym4czKthxvig4dthG36v08BaEqZOK+KQAC5csJIExpl2wDg6rhWE0NAkGk9eI7JgBp8n3T9EmJ4RThhSR8piJiAXuViHmafK42GHYFT1Pq2Hm8P7Zrt0gjN5pvxphXY4x3UnhkrZoa7xtqfVEDP+nzoHWhjcJue8U73UKSOeFiUoJPD6AGG1HSXt3DTbLrXWvZDPPJw3QLjEM/gYpbG2zE+AXJYzs9DuXA/+uJe+3m8PHws0S/z6bTs4Pf/j0u3vFoWdvf4Hw==);lineShape=1;strokeColor=default;rounded=1;sketch=1;hachureGap=4;jiggle=2;curveFitting=1;fontFamily=Architects Daughter;fontSource=https%3A%2F%2Ffonts.googleapis.com%2Fcss%3Ffamily%3DArchitects%2BDaughter;fontSize=20;" vertex="1" parent="1">
          <mxGeometry x="688.7271864083136" y="1082.2282634185856" width="16.339209664958616" height="18.768413333636772" as="geometry" />
        </mxCell>
        <mxCell id="vcEVfHxHfkmR4wFx27v9-70" value="" style="shape=stencil(lVfLctswDPwaXTEE+D6n6X9kJk7tqWtnHKePvy9UVbYBWZv25jBckQB2F+AQH962T6+bQcLb+XT8uvmxez5vh/hpENkdtpvT7qy/hvg4xIeX42nz5XR8PzxPf78+jTvHX9+O38cv/JxwjRqPIAm/poUk1OKflc/T/v3ucLOfM3G2gEo9rAMkUrKAnKh0AOgUqwGUQFXWAbFQKBaQqeR1gIYYugFUJqkAUHyWaqMEgs5MUQygZQoNXinbE1qiCk5IiZo9oWoaUNCNcvRZ6gxiECrBFq7OZ94HVBJHjUYdXKkIRQcIc6LvAy4hzoCYKIIs1UDFBi2FBJygSXTkYw26rAPGutosJWJwQCvUbd0Y6q2pGpLZHyiB73fx9wnzwv39Kkb/faSdrve3YhMSQOzeqCaXn78L9/d3qs3ymiq6T6fuCsY44E5ixc9aMVDhXr3SuEDH65mq1TK3uej3AZHYxjwWDRVZOdAXAGBgTT3a6oA79COldbVlVh0wqIPalYhPa0JX0r7gTuCZ6muAbAENh5C8papUkdIuznBldgZlbs0XQdsUCLjzbAw3ysSscEoIc1NZU6ZYpfEs7TVluopFaliZ2e4vsENxCN6KOmw4ekBxulFh4AiikzLugf8NUN04DkWlLSYp2yLETgmwtC7sSIcNBmWuOoBZKecIdaA9MNsTdJ4KYADTLussW1caYLb28WoLXROcp3IntlfSvCHt5+y1oOqIQMyp+zrc0HFtAks2r8rHCLihY6eb8VThyLWjdvpF1Kh3yqIQtULJjQ5kY9DBFklO6e88qRRoMovngpYygeYp3jN0+BfAPfaequRG81qYnxKX/QzHteCJl7GpLixMR9oCmB087fR1hEw+eMtLGeZTW6TtgfoOQOIXP84qzTv4vvbYxX40HCVP6cRwvNMeVRb70Tzuvev6dvs3fn7wnP14v/64vp1fdvv99PS+/b9/a+vS9E6Pj78B);lineShape=1;strokeColor=default;rounded=1;sketch=1;hachureGap=4;jiggle=2;curveFitting=1;fontFamily=Architects Daughter;fontSource=https%3A%2F%2Ffonts.googleapis.com%2Fcss%3Ffamily%3DArchitects%2BDaughter;fontSize=20;" vertex="1" parent="1">
          <mxGeometry x="390.758424210813" y="1034.7169744980615" width="30.730409773451356" height="25.29287291523633" as="geometry" />
        </mxCell>
        <mxCell id="vcEVfHxHfkmR4wFx27v9-71" value="" style="shape=stencil(lVfLbhsxDPwaXwlR1POcpv8RIE5jNI0Dx339fbk1tF4yu2PkZms5EjnkUNRO7t6fH972uxjez6fj9/3vw+P5eSdfdjEeXp/3p8NZf+3kfid3T8fT/tvp+PP18fL/7WGynH79OP6advhzwXGkUidUDH8vKxIptv8rXy+Al8PrEtCImwEkJpFtQEzU7Qk5UAIA0f3YAgo14JI0CsUAisYQtwEpUxML6BTrNkA9bvaEWsfKOkAodHuCDCfXAZWqY0mo8jaghPF5zkOkDoJWTrJ1SQIVkAflxGVacx/zNqAxdXtCogZYbYkkGvtInIB9HccPey0kwGmfP1/tQwD2Mvi42jfAaC+U2PkP7Rtlu7/WIfKnU7XxdkqAf7Xv1p6FBAhHAWwD4Dpyvg6oXpq3UpB8CBNHoCY6Uw0WkIjBCa35JE+ADgB5cLJwqaMTItXugy4gby2M/Ra0CjpB69KKXxOXkXLC6G/XyihIOdpSbQh5NOV1e6FkHVKK0P6F4gfloBx0nwNlADS7HgfhC+Uj+0zZlR0F0Oq0rrtrplSRkmchDvsGdcNh7jxzhuPI+dYJ2QEyrFJtLsFp+Ua3+CxgKiLrklTKgKWqWU6WVe2AIG01jxtsvjXD2GIdwF78VZUBWCqF2J6gUkLSnBywQeut0gFLmSnboBfJ3xpfokVo+TYQtSTf51V/FZSfdods5XZNzTpAY3QAJgYC4uRvEh03OhpfqNqYJ96APftRQacdAfoJXj4pwI6qKbKUalYyoPSDnqVALcxVNtunG/E6PnUsL6DsdOB1/jDsL/P9MjfIjgfakf6FPdpfJ3Y3KLQx4K43F58vXUHtjgNx8A6hK5B55Gcx/iKPPv8yug3QH9eH2NPh5eXyjlt+9w83Xbo8+uT+Hw==);lineShape=1;strokeColor=default;rounded=1;sketch=1;hachureGap=4;jiggle=2;curveFitting=1;fontFamily=Architects Daughter;fontSource=https%3A%2F%2Ffonts.googleapis.com%2Fcss%3Ffamily%3DArchitects%2BDaughter;fontSize=20;" vertex="1" parent="1">
          <mxGeometry x="726.750205302028" y="1035.333187836346" width="25.002696656607668" height="20.541487518673875" as="geometry" />
        </mxCell>
        <mxCell id="vcEVfHxHfkmR4wFx27v9-72" value="" style="shape=stencil(lVfZctswDPwavWJIgAf4nKb/kZk4taaunXGcHn9fqK5kE7K3zZtMY0kciwU5yMPb9ul1M3B4Ox0PXzc/xufTdpBPA/O4326O48m+Bnkc5OHlcNx8OR7e98/n369Pk+X09e3wfdrh5xkXC0mYUBx+/V1JpPpn5fMZsBv3VwBmqq0DsJIWAFCKtQOIUg33AVKpxg6Q07xyE5AypR5QLKp2H5CZWh9DLdQYnCBUSgdQWwEnpEJJ+xOEAkhrDpS4D1qpVQDIJLkDpEQNpDU375IkiiCGKYmpr3SEJ9TF48UlUrlvr5FKHzNTBDlSC7CPIFAGvNCFZxf7APxvTOL3R0RtmUp2/mcQb1t1Qp6b77Z9W7GOKtq/+fxHppQhIDhAgSxtlULvUWzEyCWj2IpDGZ0QVpxgUtAHWua/rwANsUiI1bukoA80ELMPugK1sD4I4tOK1OKiPgtAKKITrA694jUoeOaRU/kMRd5CXjG7AY23nKrvtAaIp5VScvYhAVbEWRgu9oJpV1wFZgfv8Tr19okY5NMah90AoQz8j2FRnsWhSAy0y07Iq7ncEKCS9imNSgxq9mGAFdkVzSY1ZOlK72wsNkTT1Zi1IYg6rRjt+z6oPPfebYBJdu+S4qlZrEx9JzQs2jbIxfVywGPHrkPu+mJ0T6A7xcaMCyJSAGni4iWvBszX6ifJdN1AAPENYaVGs7nOZF64VOZZdNM+zHfMK5UXaB/dLXW5YN2x9/2p/9jfEW+6SAPimYCt2jkBe553uxrlFfgjqwkS4ejPVHtGRGMEsK9e4M0e9X7zU3myB5w2d12BDYAuO8Y418m2RUUUzV6NpiELQv7w0+g/APZxeYm9jLvd+SF3/b9/udnS+dUnj78B);lineShape=1;strokeColor=default;rounded=1;sketch=1;hachureGap=4;jiggle=2;curveFitting=1;fontFamily=Architects Daughter;fontSource=https%3A%2F%2Ffonts.googleapis.com%2Fcss%3Ffamily%3DArchitects%2BDaughter;fontSize=20;" vertex="1" parent="1">
          <mxGeometry x="398.7697604430307" y="800.2271071496227" width="20.16386099680517" height="20.255187527008502" as="geometry" />
        </mxCell>
        <mxCell id="vcEVfHxHfkmR4wFx27v9-73" value="" style="shape=stencil(lVjbdhoxDPwaXnVsy9fnNP2PnBNSOKWQQ0gvf19tqQmWdgfyttlosGXNjORd8cPb5ul1vQru7XQ8fF//2j6fNiv+sgphu9+sj9uTPK34ccUPL4fj+tvx8L5/Pv/9+jRFTk8/Dj+nX/h9xnmKdQIF9+f8ImWK4d+br+f43XZ/FV8o+TG+EPvleO8pmwW4AUAm1zTAxWVAcNSyBuQEAJlC0Dn8P4VZAHtKcQRUcgiQqXoNSOBUY+gpXgEqSDoWcs4AQNJJcsga4DMAJKo8AhI1kENqVBQgUHXLgMwUxkrHRgxWyELNcYWYKAPy5UZhrEP0VAtgN1Me68AM6V1ED2MdAlMBOVRHecxBCF/AKVUmrwCOIihcFbmMlY59yfn4SnmUQ6AEyN08+VHRnhxgXiudZz3ede7Ox1e9/wCJKvF13E/tNJmPb9rCfO1HvARoY43ZUQAs8s5pdUbu8ltaoio5516VJQCPrMjYkpqpchHeAYeRspUyHuvFyucBuRvQBRAoAu20pI271O45S4AwnlLx0DBa1HLODucQiUdArJisBsBYbXZLIp+GqGGS9jeSNsfKVFG8qZuw+1PEkAYM1GCZh/uIpbaP2JCMeAKeGGb0yY08KrOxAOltaIqxJpMjnACsi5VIARHJ2KS0loi2JD5s9InmJGvctwCs223Fp1RlZEg6B8RV6W2q1GIZiEzSPbWLua6neYA3STOUW6maSzXD/iN1VQOudFQGApIpJo7HKiaSwLHKnJTUCokYeIxMYnGUaLtM4UuznhoOJxcBkpumSbWlAtlq51UBVACwE/HEXwQwM7cAAuhXdqoXANK0vTcIAHm9vZmIytHcYO8+k3t+6nZ1ZYZ3XuBkiQz2ZG6IkkMBejA30On3YbwPOh4l4KgY5nngYhcXvVIb4pH4yehhzRHD/agK1ARnEtOrPq4Q98WXBG/0Zj/FQbMw+ebUXfy+88we3lRNvaabLaK05oPc5mH3/+QXj9vx8vDxeeVlu9udv85c/19/jpFX5085/PgX);lineShape=1;strokeColor=default;rounded=1;sketch=1;hachureGap=4;jiggle=2;curveFitting=1;fontFamily=Architects Daughter;fontSource=https%3A%2F%2Ffonts.googleapis.com%2Fcss%3Ffamily%3DArchitects%2BDaughter;fontSize=20;" vertex="1" parent="1">
          <mxGeometry x="923.3310972707536" y="1064.7478809248698" width="79.04632817741003" height="5.449869068096632" as="geometry" />
        </mxCell>
        <mxCell id="vcEVfHxHfkmR4wFx27v9-74" value="" style="shape=stencil(rVfLctswDPwaXXcIgM9zmv5HZuLUnrpxxnH6+PvC1VA1YQm99KY4WBFcLBbQJA/v+6e33cTh/XI+fd39ODxf9pN8mpgPr/vd+XDRp0keJ3l4OZ13X86nj9fn+e+3p2vk9enb6fv1DT9nHGdkuaI4/Jp/EXD488PnOf54eL2JlwyKQzwFVNoGJEJOA4AZMW4DckbNY0YCck4oDTQCIoFkG9DEphQLpGwDKASEMCBSQnNyaoTIAyBHNCenEjvtHVAEweNVaSoDoOqtk1M5RqIB0BKkbQO4gcdSt4LsaIMjijlBS+Px2iDVAlp2AILKFlCdEyqyyaii8Xa8VqHZK3vtQBCTj5bZib/TUWOwU7SAOBJUG5LTPIwyvr8WBK/Zeisu8QnB4Yf0wuYA6UeuAzJKsQCPUb0CVwtI1QGUzuACiKiehZH1i6pJOiSp/xgVaRXISUkiZDRV9YPqAcTeQXWUnEYQFYYRanaFrZW2KVUUx5BU2nzXzMWxC0rII603trlhq+BijxAnp4R0153V6R7uY+DG8YpDUrgzPOlS2Ygn0/1aFid/QjHS1vz/Y/zV4kdCc+s62RrOptlyQHb8NKduP8sgzF0n6ydEu1+khbV1B+Y+Y26muXhFLojjpXVwVU+o3K+4CLV0otdptSSpcMnxC+qTfikbsvN6sp2plu2ljzSKLvUZsdEDxigEzck9gsZwdn0o251i2XvW1yJ71eBau1bKlFaJ9wxF2zubeNeAdBloJp69jYjt+A5onjSjNSxyyV9dxp3m+vfyrg9/N/+Xw/E4fzjc/t9+KehP81eGPP4G);lineShape=1;strokeColor=default;rounded=1;sketch=1;hachureGap=4;jiggle=2;curveFitting=1;fontFamily=Architects Daughter;fontSource=https%3A%2F%2Ffonts.googleapis.com%2Fcss%3Ffamily%3DArchitects%2BDaughter;fontSize=20;" vertex="1" parent="1">
          <mxGeometry x="989.5657601671239" y="1058.2370456687527" width="12.932800111370398" height="26.414759115662946" as="geometry" />
        </mxCell>
        <mxCell id="vcEVfHxHfkmR4wFx27v9-75" value="" style="shape=stencil(nVfZctswDPwavWJIghee0/Q/MhOn1tS1M47T4+8LV0NHhJS13TdZxorAYnFw4Ie37dPrZgju7XQ8fN/8Gp9P24G/DCGM++3mOJ70aeDHgR9eDsfNt+Phff88/X59Oluen34cfp6/8HvClUKZz6jg/kxvIsX478XXyX437nv7kDp7z+QSBOTYAYKj6iGg5B5QqQYIiKEDcCFGLmWS/oSYySOXMhXXAVKkgllyPas5UMExVOkBQtUBgDSPG6Ck9olVQPUkfQw1ttSvA4S4d0k8JeCSLFiSQLV+DvDOkTMIVR9ASCXpxaSHesCrsJW3XPS4HnW0ctUzawGJCDZzIpRBDEn/7uU642EVoeoMbI8o4AiO5J0FoCLVok/B0oTU5GvL0ywRESTCZxu1phrF4FXgJmgmn0EMiUrfmVSvBQicFWAy55qT63mo5HuA1ogAbWRPOVtABS6VCyczlwJwqWbrkgaNWpmyns0JodX5OkDbQLV5EFBBH9q8ABIlVNTauEziCsx0LSQm6Ao707Idq5MRJS62rjIDCCigpMrxCwDIg44oWQDQ0Ao607INmoE07gYsmvGVARFs+VyZQJFcH/GVERdb371xhiYKdw3pSGI2H7wFxCaZG9cM1ZBZfPAeEymYvQcvSotJdWUT0+/3/uNNLxH39DAxKJlq2QlNfuvtnSn26vGwIpULs++4tiZ+pn6zKbhG73o9Zkps7OFMTo2N2+wT250T+6Ojw1QXjjcr//4OPovy38eL86UrcDLqh3L4j3vFFXt9+LjEvIy73XQHmv9vLz36arow8eNf);lineShape=1;strokeColor=default;rounded=1;sketch=1;hachureGap=4;jiggle=2;curveFitting=1;fontFamily=Architects Daughter;fontSource=https%3A%2F%2Ffonts.googleapis.com%2Fcss%3Ffamily%3DArchitects%2BDaughter;fontSize=20;" vertex="1" parent="1">
          <mxGeometry x="997.7492602942882" y="763.4430784351393" width="4.275470245230963" height="35.059540930655885" as="geometry" />
        </mxCell>
        <mxCell id="vcEVfHxHfkmR4wFx27v9-76" value="" style="shape=stencil(rVlbbhsxDDyNfwlJ1IP6TtN7BIjTGE3jIElfty9VQ+sVtTtBgf459lDim0PlwDdvj3cvx0Nwb++v56/Hn6f798cDfzqEcHp+PL6e3vXTgW8PfPNwfj1+eT1/f76//P1y15Dt07fzj3bCr4ucI+ebUHC/L19UoZz/fvP5gn86Pa/wnrzBOwqyjw8UeMALUwZ4piIDvmRqf+7hE4kb8LmQ1H28EJcBnwTivac8XhArJQ8EEsXRQ9FRBBb45bwuwIE8UEl9JGEQUC94oJIa7fMgoHeGAoIQiMcbfKQIVOJsw+wdZXRDJRmNLlTcPj4GqqMJiRIDfOrXL07tB2zjhdyID1SA/kmz3rgUnp/Uo8ngUVIk9bfFO1A2KVMaI+ZIgH806yd8BvrkJYev+AjOz5rCzuBDBHjNYDZ4h/Cld5EVHuRPrlST1QfYWwLFbPAF4aPV3/ea28YnqmLwOQG85mc1+YnarjjibPAVnC+B8ni+tmngf4lUR3yE8ZVCIRm8IP1rD8+13lG96BQSi0f5X9nWe6aM8LFPxWu/qgife/ouc7K31G18IZ4aKDSg9vpbBJgCaNEqUKoVENDiVMCmaKQEcmhDIMEkVQEzvFWgYpVsV8xYJennrQRQn1YBM719gYWsgROeBFDgSvfJSiVBN+jP0QowirT6JFq3omGmAtbo1MtjV8C4NRKD8leBYm7ANFC95CcBjyJd+vxaBEKnGHuR9tUKZORW6U5c3wBmjmarjbTagLxUbRNuXkKpUXsTWscBcU23jMl1qLFOMhV1wV0gTfnNuAv4Kb8FF7Wh5K3kUHPV4RkmAVzUZvq3toELYu4z6b8KJEuoPiq5SM7khlJaZHToDGcR8BRQfntiswv25W17pivnHNNbYJwl25krcMIpJ4l2RiPOppzHcIAC7S1q3piomDOUYjlz7iRujxPyeH6CKVF8nxtXToV2KOXAyayycG1Ujp3GDOLugF0Ob3euBPJBd4Qw4dH5rrtjxVFBfHXHmXZA5B/doSYOjPq77mhmB9EdE+kT7BCMMB90xyw2vhHES3fYYuMLd948vYVA/SP3xn+tFzRsorMNpUL9edoRPF5ymCcOnOEW2Ei42YrwM0WY1lKtYQY+1fPqaLMqiWxos25MoujhuGwcYlRJ8wQOArv5ptr78HZbmbqW9L6x8wIXx65VMiQIWiQjXvs2mt7BOkh3PdR2vaXLSjAcxJsXR8UzsNfbrtIYD/C/t897tcI26u3bW6Ng6IVyepFd9rBNvOunXTdN/HbiNgxGfcXZMdwMAAnhLE1uPBga4KcAR6iPSxYfQB+aKHLbIkHA/vUJ/WO8fri+1z+cnp4uz/3r3+37vn51+d8A3/4B);lineShape=1;strokeColor=default;rounded=1;sketch=1;hachureGap=4;jiggle=2;curveFitting=1;fontFamily=Architects Daughter;fontSource=https%3A%2F%2Ffonts.googleapis.com%2Fcss%3Ffamily%3DArchitects%2BDaughter;fontSize=20;" vertex="1" parent="1">
          <mxGeometry x="867.3718197326289" y="718.243896192769" width="122.17378493818342" height="97.88736141209074" as="geometry" />
        </mxCell>
        <mxCell id="vcEVfHxHfkmR4wFx27v9-77" value="" style="shape=stencil(lVjLctswDPwaXzEkQBLkOU3/IzNxGk9dO+Okr78vVJeKCEvbyU2WsSQI7AKgdnL3+vzwst9xeH27nL/ufx4e35538mnHfDg97y+HN3vayf1O7p7Ol/2Xy/n76fH6++Vhspyevp1/TCv8uuK0UcgTisPv6xuhVv+++Hy1Px5Oo72WwT4y5bgNqIFaGgFKBexQmZIOAGZqaIdEsY2Ail3K1MYdJFFAgEZ5BCSmotuAxiRxBChJAQBzYDxDnpdYBygFGQGFWtsGxBAohAFRuMdhfYtCMmZOYyfLepgKxfHUmqmAU2slGU+tCl0qjdIIMHr9c3IVkFvn2gywQ4dtQGoUx7gaWxJwSSq1URC1EoNDc+sOdEALUHJGfxkl2oQEuBQLKY+ATAwASuzsGzEIUu56XNhXFFSv6AUZ14NK4cYhRScmTd4+AloEUhfRShGsHyg6+9KzvmEfok9Agf44pVk9EKC06IVmjGABFCJ263NX3kb8i6NohCU4U1BvX0F8iieE+YP8V69is0eSsfqffTwDiH/zpdHyJYCfte++4EMB/ldftqx8VyjI7OxtR0bxFBfPBvmWfM0yexRPufHfBA/4w119C3vEt9izszhvBucNPTuLeArw/6b1Wb4CtI8uvwnWn0D1Ro8ZrG/qGJuM8Rnx58P20tMzNyWFA0tsfb0ZMDfz9QyrH7qq7YkoVHyTqbjtJSP16JINBxn1+uL7pCbYxkr2adO5MazLMvUuMY9QSoqH3+oAGbpkaarFAxQoYZpORqqWgEuRdObPg2Pu3W0dEP2QluYpbGuqc6NpitAlNWqMO0iBM5flwfUnCXAAUfYFe2pZIKw26eaRGqYQRoDg82AaRC3cRllXwxJumc3LQeCRy42iGZYwOwCP/sxFZytCbsbBlwOzb2OSLWLobiAUg7NHBWnSenX2aMS0q0nKfn3kf+nF590+I3srVj6eaMQ01bAbkuF9zuzV3Xr7RXvr4v7Ri/5/7O3h/avC0+F4vH6UWP7vv0LYq+sXDLn/Aw==);lineShape=1;strokeColor=default;rounded=1;sketch=1;hachureGap=4;jiggle=2;curveFitting=1;fontFamily=Architects Daughter;fontSource=https%3A%2F%2Ffonts.googleapis.com%2Fcss%3Ffamily%3DArchitects%2BDaughter;fontSize=20;" vertex="1" parent="1">
          <mxGeometry x="957.6260418138688" y="713.2912452259764" width="34.88168525622382" height="38.63668312111963" as="geometry" />
        </mxCell>
        <mxCell id="vcEVfHxHfkmR4wFx27v9-80" value="" style="shape=stencil(lVjZbttADPwavxJ77/I5Tf8jQJzGaBoHjtPj7zuqIdWkrTHyJsuc3eUMr9Um370/P7xtNym8Hw/779tfu8fj8yZ/2aS0e33eHnZHPG3y/SbfPe0P22+H/cfr4+n328NkOT392P+cVvh9wkUZaQKl8Of0IkgI/158PZm/7F7PzFWaNY+S+rp5rBK6sU/S67o9lnP2VbIS+y59GHuVRI6fi4xiz5+ltHVAAT92gzgkFwIYUtV6nEXTOqAW6ZZS+NCJz1VFmwFksEx2aGXmcAGoFKJCGxKDAZQsLa8DepSYLaBLIrT2IiFanRFIkQCaDOt0rZLIkcYSaDOgpTnUrwPqzPoCaDQ0xhC1TvcwR+/13ElSLa0TDUQH7V7prlRpHdItYATJ7EgIBKsDeGscMKzT4K0RlmJYCsqCgBMkg6YtrBAgjgkBgONVq1TG67jYAUyTlAMg2hyd9iTRp0v4L2Uj3CiszSuBLTLzGrxX7wSV7qIW400kOaeoTFZrjaKM1zKHwiI1qiGL1+KzGtEUuQ/ZhV+iDQi0+ugLc3FbAwyrQ0eeM5bA+vCAwQDgxO2gHKBzaVx8iLcArqUMKMMBan0YSAjGks6BcBYarC0C4EID2tdBAT7lOld6+C43LcFztFYPUB5L7WKHxsrGpwEYfxwg0+CDTMUpDe2JDgiEZAegsdSR6wAcyaUolGadGrXS0ore3dksgJR3XQ45zeYZ9V0OrZ2NJ2jkalmqvN43DIWWpcqHh6pXBqBCjoSpz9UlTJqd0Ir11FbvjNJGdsB62eqQA+3UmI2zLQKpzVPa2vCdLUuY7tmRcLfobvoeVLhYfDGOaJMsRX1pxQqd3U9mzs/s2QiHIdXdBjKtxMEPGrCPRIPgS1JMczat2PvzYEdq7+uLZBLWF6NbpxEULoZ6Wk/DRc7MzX3F3EfbDVebXT3OV9cVc7XMIFZJA4y+2QSq0ydv2TfN8fD/Qv+0e3k5fQ84/99/AMCr08eDfP8X);lineShape=1;strokeColor=default;rounded=1;sketch=1;hachureGap=4;jiggle=2;curveFitting=1;fontFamily=Architects Daughter;fontSource=https%3A%2F%2Ffonts.googleapis.com%2Fcss%3Ffamily%3DArchitects%2BDaughter;fontSize=20;" vertex="1" parent="1">
          <mxGeometry x="1054.3308199113826" y="744.8267599647222" width="66.3367486521588" height="16.6755339984511" as="geometry" />
        </mxCell>
        <mxCell id="vcEVfHxHfkmR4wFx27v9-82" value="Fraud" style="whiteSpace=wrap;html=1;aspect=fixed;rounded=1;sketch=1;hachureGap=4;jiggle=2;curveFitting=1;fontFamily=Architects Daughter;fontSource=https%3A%2F%2Ffonts.googleapis.com%2Fcss%3Ffamily%3DArchitects%2BDaughter;fontSize=20;" vertex="1" parent="1">
          <mxGeometry x="1140" y="733.19" width="80" height="80" as="geometry" />
        </mxCell>
        <mxCell id="vcEVfHxHfkmR4wFx27v9-84" value="" style="shape=stencil(lVfZctswDPwavWJIgudzmv5HZuLUnrpxxnF6/H2haqgIkLSevsnyggIWi4MDP7wfn94OQ3Dvt+vl++HX6fl2HPjLEMLp9Xi4nm7yNPDjwA8vl+vh2/Xy8fo8/X57GpHj04/Lz/GE35NdqVTzaBXcn+kNU6r/Xnyd8OfT6wJfA5Wq8D5Q9cAgUWvaoFHmfYPmKWoDdtQcMEhUkjZolBowqMQ65pioRmAg5xVlkCRoEIN3jpxTFtlRRj4VSjqIXHpY27xmyjqIEqkBn0qjoL9Q5Asgc8WR14mojlLeN0itszgbMMWwbxAbOS0miSoA9XGlYFxqxGXfIGRyOuiG5dqo6BAk9xGRZLMg+IY4suIe8YAiIXDlDwN/PBXW+NqzuImXjJrzRVeA0JWum6gO+CMaMvwwOeCPX53voYTCih/XM74tOeJgBeQBPlPU+qmVCvC/Uvb2fAf89862FjFAApV264NlyIGa8UzeUCo9HPRTPxftIscJGzgjutzrdNvAU9NBS/urKAbXq3xRBh64JB2+Wjzq8OKvTtuig+/oyK3qGM3NYJtvm5WyUzd1xVDAdWaSnChBvE0Zw/kk08v4LzkEdeP7yF7UZQR9kW0fHRs78IetP3fwwVtRyyaDEsZMrDuLrEoRKSKS15TKQEaUpkhR57h4CqD35miHmewIDcQgHhvVZRx0nUUwLzoFlkGNvbvNBg7GIKyzZily3yj3YihmQY29e2wbsN1CxiGKvuB6w52LP/dlbDsP2Q7x0qfEHt607Nyn4i7ecAS3TcEnHQD3qb6Nl1aiKQ1wicrVDk2P8fOC3/HSPcAMFNkbfhzkp8zz6xOPRCp1GKo9HylILhTF+g/4lD3arLEedgqRtMlvuIf/rzvafbw8fF4IX07n83SfXP5vL5Dyarp88uNf);lineShape=1;strokeColor=default;rounded=1;sketch=1;hachureGap=4;jiggle=2;curveFitting=1;fontFamily=Architects Daughter;fontSource=https%3A%2F%2Ffonts.googleapis.com%2Fcss%3Ffamily%3DArchitects%2BDaughter;fontSize=20;" vertex="1" parent="1">
          <mxGeometry x="1092.4535183404178" y="743.2692245019955" width="26.206363571937345" height="31.3749593359139" as="geometry" />
        </mxCell>
        <mxCell id="vcEVfHxHfkmR4wFx27v9-87" value="" style="shape=stencil(lVnbcls3DPwavWJIgtdnJ/0Pz8SpNXVsj+O2yd8XrIZH4lJnbb3psjwkQGCxwDno3c/H+9eHQ3A/399e/nr49/jt/fGgXw4hHJ8fH96O7/bpoF8Pevf95e3hz7eXv5+/nb6/3ndk//Tj5Z/+hF+ndU6c64uC+336oTXx4f9f/jjhn47PEz4APolSfPYz3ktx+3gvWiZ8zVLLPj5ISjPeSfX7+Ci+TfiikvM+PkuoEz4nKWkfX6XM509FEjmP95LmDWITrWRBlDTvEP3Y8/oCO8BssiZxSlzq0KehSYxkgeKlmZsbW5DFhXmBl8huuUqcbfBVGgkjtSiY49Tc4EicapA234NPI3SvL0iYOf1miNFqgazzAqUXp2Z0wgWB7dCk5nlBkEpiySIHstkWJJINMYxkuVjgGlkQRcEGy3C2IEucQ8O7cffXFxhfASOJEielgBuUcfPX8cYAc+hlep7sRhRs+SmNZFu2v2eG1HHt1/FmL2SnBBKnxm9+Po9dOom6kiXP9jqaB6Uhw1uJIPZWP0LyjHfkPNX42SGeEbD5MyCexENNUtFexo61iEd7HWGiWod5Z7xnz7cKooBvxP/V/A8ZRlO4uYWGpJF4tnqdl3gj529LRQ5UIDQdteXi+SQeWhzl8XPx3/WJA7xnz89rfrF4aFZXgBKpQGh16J8znsWP6TGH8c843fCKeFaLDQ8CxIvnz68e8In5s0lb/MnkilskqRUddgHLBjo03icNUKpIVwdFWvL6BXjAKz8/2BtphVwDKPKEqZhgKo3jA+KZrjG8D4B3LCErEmig6rLjQfsNxt7DKyZkZARUsYBZQrIE2JTnRYLx+Ak34tNCEDwhCxZ4am9DwfGBP9uoD5+8r4ZK+oN4WFTrB/FmBa8cbohna15uypdb8RUFaOQEXUY93FpEXsAytgGJCkQreCkDnhJ0RIFleMZXigIl0d7NBEHD89D4DKP+nPGUP7eG4oxnEwwTQAn5uRDBZAIL/BlHhd0TcJC/pnDY8wvGfxjt9B4eBKWnDUwXuItAIf7pAhr5h8VPF+jIJywerAFY+Ic1VGXJ902R7jUwMILhAq4o1jvTG8Sf1oAF5J9M/JnT6Fcu+IFNnBw2YJk3tAs/FFpfrAGGedBGeHsNNozArCNncwtr4TEgPG2BYxyEczm34GMInO5sXeLeoEOXYY1n86OGpOW3ScbesAZltPEqG9aUZX5kvEWM1q1MXCxgnaEuge3zkMrXF3hUZr5S6g11zGa31HFj2rA3+IvAdVzcW27hDpnO8Xr3AuzrJJId/CIvzdHMS+Z10HN9KsZGvFvDvBUoR2+6LQW/UoWQUXDlzGdsOCEpkbb0isljFK7kPAEnTlayAhtpS4R3BIG2xH4MdDY8VyAOY6g1qugMHxHPKvgya+4SlfjToYDqEp74x+EEpkts4p9lft/x1F6cMzs+03KjIF1uQA0IK54kscMRzLln38G7ulwANdgtF5CovetLMpYAt79U+whvH85v8L4fn55OLwAv/8c3fvbT6W2hfv0P);lineShape=1;strokeColor=default;rounded=1;sketch=1;hachureGap=4;jiggle=2;curveFitting=1;fontFamily=Architects Daughter;fontSource=https%3A%2F%2Ffonts.googleapis.com%2Fcss%3Ffamily%3DArchitects%2BDaughter;fontSize=20;" vertex="1" parent="1">
          <mxGeometry x="859.3727230939267" y="921.5716818340479" width="260.41765025191444" height="140.55992006124302" as="geometry" />
        </mxCell>
        <mxCell id="vcEVfHxHfkmR4wFx27v9-88" value="" style="shape=stencil(lVfLbhsxDPyavRKUqAd1TtP/CBCnNurageP08fela2izlL1T5LaWOaJIDofSJA9v26fXzRT57Xw6ft/82j2ft5N8mWLcHbab0+5sX5M8TvLwcjxtvp2O74fn6+/Xp4vl5evH8edlh99XXMrE5YKK/Oe6EqnWfwtfr/b73WFhnwvl6uyDUC7rgMrU1DtIVNo6QBNJcABJxLoOaAbwHlKgIuuAwEzMDpEjDKJFKh5QEo66EYsDVPOQ1gElUvNR2xYCCpF09KCZalwHSCZNDtCYFOQ1MpUBoCTAQyi9sDOgUQEeQiS5ATQAUAo39jGAJFH2OWqVEqhCoDrsn0jzuj1T9M3TAqwBU/A0Uu3cXTmP3NQ4AFIIqSeRRhhvpejjVaYEaB0CJR+AsRQmdObkApAZABpVHY9UQEot5qBjzEhfYu6NuEhqQoDSD7CoWgX6YgDxANMPBmm9KGL2AKsz4J0RQ30djNgFFc7Uwsu2dY6gwsmoFgvVvK+RlPPoIQNuZyrDiay7UVb7boscVVA27jNgUQQFWnEzExQzlfucnO0L1CLz7rVChSLITyEeaBqIQSN81t4KNoivjWoBCU12Xu/BhmADgKzjPLAVVLJa+4lngMBOK9pZP4/+QgldX/LYaVIogMaxq8QgkSY4FZW5jYAw5+0+oFLzxDOVhYpnWRo6ravBmhwNU62SghzZ38F3TqaGxEjHK2TC4mV95adU7HfK+0PNho63D/2GeN9exhrbUAMkMgZwG+yR0IlSvrEH+xuFOAz2GdlL15GPeNFQ/uwV/v/29vHxXnjZ7ffX58by//F9YUvXt4k8/gU=);lineShape=1;strokeColor=default;rounded=1;sketch=1;hachureGap=4;jiggle=2;curveFitting=1;fontFamily=Architects Daughter;fontSource=https%3A%2F%2Ffonts.googleapis.com%2Fcss%3Ffamily%3DArchitects%2BDaughter;fontSize=20;" vertex="1" parent="1">
          <mxGeometry x="1102.2679256256042" y="920.2685359825869" width="16.76529484505909" height="21.636701800541914" as="geometry" />
        </mxCell>
        <mxCell id="vcEVfHxHfkmR4wFx27v9-91" value="" style="shape=stencil(fZbLUsMwDEW/JluNbdmWvObxH52h0AylZUp5/T0yIW5lEu0SJyeypHsVD3jzttu8bofg3s6n4/P2c3w47wa8HUIYD7vtaTzL1YB3A948Hk/bp9Px/fAw3b9u6pv16uX4Ub/wNXHMgKFSwX1PK+gh5N+V+wnYj4croCQoUQHRA1tAAcoKSBEwmkD0CsgEWAwgQtEAFchpHeAMpHPgAhzWAUo9UDKwESEjOFaAdw6cWyeS64nCc6UXAWRwRQMIxOtAkFbrCJzAGZ0LHoruHEkEIwdfIHWdc8DWlkRrpMVEZtKBwGkAMwSjEfIYnQLqJ4xW1w3oKtVNGoCk2KlPyhCNstYihj5CMSLUNnVbklYaSVchaGlUsZABcG/qKkcjhys1t1ajHaIZpompmWo562bJJtdsAhfTN0O0wbDcOYKoc7iMnmWPyuDKPUBGmepo7Dwq4xMNuYrWNFAHtLElATp9Xyb6muWwiyBqMbbkA7C2HGUoxhQQQ6JWBs8rywF6YSQ2DfdPeWJZy28O6N/ISFbTwOv9S0be+sHNI675P5tDzxPkbtKb9akDq3Pz/IFlSRAkbWY3LyznyxBT9775pyrgdUHDPJ/+3peLy3njcdzvp+PK9fP+fCJL09kG734A);lineShape=1;strokeColor=default;rounded=1;sketch=1;hachureGap=4;jiggle=2;curveFitting=1;fontFamily=Architects Daughter;fontSource=https%3A%2F%2Ffonts.googleapis.com%2Fcss%3Ffamily%3DArchitects%2BDaughter;fontSize=20;" vertex="1" parent="1">
          <mxGeometry x="1171.7163545548228" y="758.2186487597039" width="3.9433542479055177" height="3.9410987922151435" as="geometry" />
        </mxCell>
        <mxCell id="vcEVfHxHfkmR4wFx27v9-92" value="Surge&lt;br&gt;Pricing" style="whiteSpace=wrap;html=1;aspect=fixed;rounded=1;sketch=1;hachureGap=4;jiggle=2;curveFitting=1;fontFamily=Architects Daughter;fontSource=https%3A%2F%2Ffonts.googleapis.com%2Fcss%3Ffamily%3DArchitects%2BDaughter;fontSize=20;" vertex="1" parent="1">
          <mxGeometry x="1140" y="992.11" width="80" height="80" as="geometry" />
        </mxCell>
        <mxCell id="vcEVfHxHfkmR4wFx27v9-93" value="" style="shape=stencil(nVpbchw3DDzN/qJIAnx9O849XGU5UkWRXLKcx+0DZosjEtjtlfInr9EzJN4NzIk//bj/8v3ulMKP15fn3+/+evj6en/iX04pPTzd3708vOpfJ/584k/fnl/ufnt5/vn09fzv71+G5Pjrj+c/xxP+PuN6p5oHKoV/zr/EECiE/3769Yx4fHhaEY1S3RD6jJABoFBvO6ASMwBk4rQDhGIFAKZUNkC7caRAjXdAotCvA1qjGDdAZXiHlinuly5M0gAgWUBO1NJ1QO2UwgaQRBkYrhZi2QDMFNAbmMqu1iTUESBS7LszNarlOqA06vsdopAAw5VCzQAidQEAobZfOgbKwHAlUd/v0Kkj+UjJeDcVYOfcrVI7ZeDbWT3PyQMb5EJVrDzwipxJ2MgLiIQslOJH5NlGzg15jYPwEfk4U8M75QOxfX6O1+VFH2f134GHSqNiPDRQBQ4hlYrJwIcKLgMKZRNlAuNYNJ/uV4gF+pAwdQNQr0WARLwbIWl6RFoNVkupwjBjTSQ7gBO0Axcqu5b0EREBxB5J1SDg0noA2d+gtq/g0hxI9jdocBTgq6kRm5rQoOFSIdmDf6QzkIA1oZe91GqGzUBLKU0zHYA+33kZEElM5Yz40tp+7M43Si24dHRFpMp0+MsAdTVzJK3W4A4KCGIBKGlofKVuAR0kgZipmDeoKUFZUIDVUoGFUHNENlrCXVjkGV8LoCC1sk0zCmjA0prnTKmqDbae8WjSVgDwVm0OxL8BqVVzdbV3qEitgSJbQAKXPqr3YrcGXtCmVVfHAK7XbI5Rz0NWq7OjW4KngvPX6ZZLdDag0eIcO0H9ZGeAAJ0ozzqz5CN0Hu0Hi5WPQD9i9ak9K+ofXdQU1TA4j7ZHLgGjupZmTVrkGXm09Z+R4JFD23Zn3BfoPzj7ZujPwRbNQUvg85k/9nxDQdSfE9CnVpu9xGp5Qu1amK3Woh9Uzg4yfchn2BmpvKmvcRKSa/fdz6MEA2W4QGm3lxIGFC/BtSCaT+D5s1h5AfESbJum50FlKUxSvLRECfqDyW8lwPgKM1oPeTx78PKVMvQfm2/DpLTvu6/mW9R6OH1qvKAu1tmr3tK/8QeVR72T8zeNxwb1Y/xZ6wXi0z5e+qwg74zHAicOPt55dl7vyycaj6jzc/kq1xv2NflQ46t/VB74Q7TjAOWnFfVktt6pfATPT1Pbi3wBz2c7FhskCzxfqfDeDyjhj4iJ2nqXcTyK5T85wnqaHedLkC8VO07KAv2/zuhb8ifSZ7XjLfVPxK6a6wcC7AeaHfZq/ULn75NuLoxVkL+FyeLXgEQcIMx+dgGgiZsnDQpAIeZpyQAgauWIzwAgeuiolVYlNK/25E0BqO3w9FABBd3BEVBtbCB5cxS34MoUXSgoAFGTQdPZAqBaD366AFAzF9usXYuWkGuMcuAsjcqf5lNTXzUeUH8zBjLGcHh/oxksmwxzI2OXC2MrlPLG2MrUkA5zMGuRMkVBpu2vjt72N3CH7s1i04z+grTEjrfqrSoeUJoxrpYuRBQl2COpd6FJ/Riy7q2IRnlDo2i2c663acXVQbFpvqCSpNgr4O3NKPX78xPciWmpN64aIbcZs/r9PAFyP78LwKHjdw1H93lZ3u0ybsi7XckNebeLuSHvdj035N0u6Uhnl+XdrirAXtnvwgLcfPhdW5gKuCzPttkPcKg6loUmJOH5xzZy1yf25+KGebhk1mjJU4fcTKlhNRkCz6nfZolL0kKLnrF03iNg7JBRO5hmBB4pguG8p2ULyDhTj9W8YeAM24QebNVXiinAzJ3tjLHiatPdwq3J1NtlQLWO2iolYIfxEcYeCQ2PocZ3Hu4TCTin7nbwoADk3P2Yuy4ANPlUgBmFqGUQtRsAs4qNcOE2AGaXn+Cwa/n25UAILJmXELit7d19DqO9xg097RGh7oIo6gCYlXuDS4xhOqPYDgv5AEQLQG3t//jM6B0I/ePtu6ZvD4+P58+i1v+330HpT+dvqPjzvw==);lineShape=1;strokeColor=default;rounded=1;sketch=1;hachureGap=4;jiggle=2;curveFitting=1;fontFamily=Architects Daughter;fontSource=https%3A%2F%2Ffonts.googleapis.com%2Fcss%3Ffamily%3DArchitects%2BDaughter;fontSize=20;" vertex="1" parent="1">
          <mxGeometry x="681.5219022123538" y="1001.9946189362722" width="455.1049111586108" height="21.137113807800688" as="geometry" />
        </mxCell>
        <mxCell id="vcEVfHxHfkmR4wFx27v9-94" value="" style="shape=stencil(rVfbbtswDP0avxIkdX/uuv8o0HQxliVFmu7y96Pnyatk+xQF9uYo50gUyUNSg7t7OT48Hwbll9v18vXwY3y8HQf3aVAdz8fDdbzZ1+DuB3f3dLkevlwvr+fH+ffzw4Scvr5dvk87/Jx5Qq5MJOVf80KOJP7PyucZfxrPb/CJxDX4FCmXfbw4ctIQYibH+wRlUt8QQqGSACFRTC1BKMZ9gguk7Z29GQlOsL+1PcG28IAQmHxoCJopAi9FJdaGIJm8A4RCIbYEgV7KoRqwEEhBGHLu8Uyi+/gilONH8L7HY3tKIpfbGJAGgC8kbQgiMchrYSbmhlBgntoBuVWCaE3EbYJ5tLVIAmUBhEixtciS4q8TtgmuSnFJu3eCwJS5J2TgpZz6OxjBA5Oyp9SGTQoxEGfWut9CiJSQSdLHzUpOApmRzeJOCbYCvLQ+IRGjO6+u4EmQ1NY+qgu7Qeil5oBLpyhLh2eU2Y4Kd/gEatGUp+3+CqvjJITW/kCMpdwpLZMA/2xI2YpjQB5aFQvxWJqpNoyFkKpYd8tdd0KpUvo/hJR6LTuGnXnqw22jdZkU+DWEvjP7UqeH7b6Z+sCFSAHcwXMtuUvR9riVu9U4ohTQdGFa7uadVFvvdjKFOg4tbSHCmmrVJ7et3JIFycfahrTyN4EUcGkrV91IZfmLTrBAd8MF4woQybnVAcAi3487hmcgH6VUehchuclq/0gKYsAUOgf5eqMdPHd4JQX3XY8KuM9yrYdL0mU8jHxwKH8fbx//XgBP4+k0PyDe/t+/GGxpfm24+98=);lineShape=1;strokeColor=default;rounded=1;sketch=1;hachureGap=4;jiggle=2;curveFitting=1;fontFamily=Architects Daughter;fontSource=https%3A%2F%2Ffonts.googleapis.com%2Fcss%3Ffamily%3DArchitects%2BDaughter;fontSize=20;" vertex="1" parent="1">
          <mxGeometry x="681.7745530895877" y="998.1554131406385" width="20.887078582165486" height="19.5812528143731" as="geometry" />
        </mxCell>
        <mxCell id="vcEVfHxHfkmR4wFx27v9-95" value="" style="shape=stencil(lVfRbtswDPwavxKUZEnUc9f9R4GmS7AsKdJ0W/++9Aw5IRPf0DfH4YkieUfSQ3p42z69bobIb+fT8efmz+75vB3StyHG3WG7Oe3O+jSkxyE9vBxPmx+n4/vhef79+jRZTk+/jr+nE/7OuJCoyISK/DG/idTavxffZ/v97nBlHwPVYuz1hDGvA1KmWK2DSqmuA8ZEORiAHhHiOiBHqskA9IjK64ASSEYDyIFyWQdU9knKjcYRAISKvVIpFMI6oBWq1oNoooGHph6yBYwUQZZao+oAtVdmDdBs4RpTFgiIzQISCQq6+qA1DQUUruX+9wKQXpn7gHgTQyNBWWIK4gENxKBJdGzVK7UEAKqH0QeNFCeqUOdBKw2CFtWDq0OA5FOA2CzJUpm1KzkBKfkK4JLcFE59MvJQqdk2I9zZtVa4YmOojTLikrat4gEV6aEQW02rRBldSSi4oBMlpAdtKq4JFIoAEJiJnQs9A4u6RMuNiKOW3qwXQMaNqVBy7BOcJiXTjeRQN76weRlBlzzcZ5MGUbwLNIOUr83WeupVWNVfAxTpab9SRAKdqbAfKVXHIohBx2KwIi0VDq0x9vZ+NeUiSGtK3kPWCQGCjiMlN6m1DYAYQiGxAPXZADcCd64t2wYevOrfrTMZjiD2fUnXH6Qf7VrOPsBOeSNovGhwL9BCClgxJrE7QIZdOFCzpyfMB0rWPMDhPPrZzH3Q3RcACTtzRorsK+CVObi7EidnZ59R641+jOsKCeT71T37//b6cFnqX3b7/fxNcP2//wjQV/MHRHr8BA==);lineShape=1;strokeColor=default;rounded=1;sketch=1;hachureGap=4;jiggle=2;curveFitting=1;fontFamily=Architects Daughter;fontSource=https%3A%2F%2Ffonts.googleapis.com%2Fcss%3Ffamily%3DArchitects%2BDaughter;fontSize=20;" vertex="1" parent="1">
          <mxGeometry x="683.8140996745383" y="1014.3233592845916" width="21.421387142983576" height="18.031276637073688" as="geometry" />
        </mxCell>
        <mxCell id="vcEVfHxHfkmR4wFx27v9-96" value="" style="shape=stencil(fZbLUsMwDEW/JluNbdmWvObxH52h0AylZUp5/T0yIW5lEu0SJyeypHsVD3jzttu8bofg3s6n4/P2c3w47wa8HUIYD7vtaTzL1YB3A948Hk/bp9Px/fAw3b9u6pv16uX4Ub/wNXHMgKFSwX1PK+gh5N+V+wnYj4croCQoUQHRA1tAAcoKSBEwmkD0CsgEWAwgQtEAFchpHeAMpHPgAhzWAUo9UDKwESEjOFaAdw6cWyeS64nCc6UXAWRwRQMIxOtAkFbrCJzAGZ0LHoruHEkEIwdfIHWdc8DWlkRrpMVEZtKBwGkAMwSjEfIYnQLqJ4xW1w3oKtVNGoCk2KlPyhCNstYihj5CMSLUNnVbklYaSVchaGlUsZABcG/qKkcjhys1t1ajHaIZpompmWo562bJJtdsAhfTN0O0wbDcOYKoc7iMnmWPyuDKPUBGmepo7Dwq4xMNuYrWNFAHtLElATp9Xyb6muWwiyBqMbbkA7C2HGUoxhQQQ6JWBs8rywF6YSQ2DfdPeWJZy28O6N/ISFbTwOv9S0be+sHNI675P5tDzxPkbtKb9akDq3Pz/IFlSRAkbWY3LyznyxBT9775pyrgdUHDPJ/+3peLy3njcdzvp+PK9fP+fCJL09kG734A);lineShape=1;strokeColor=default;rounded=1;sketch=1;hachureGap=4;jiggle=2;curveFitting=1;fontFamily=Architects Daughter;fontSource=https%3A%2F%2Ffonts.googleapis.com%2Fcss%3Ffamily%3DArchitects%2BDaughter;fontSize=20;" vertex="1" parent="1">
          <mxGeometry x="1146.7163545548228" y="703.2186487597039" width="3.9433542479055177" height="3.9410987922151435" as="geometry" />
        </mxCell>
        <mxCell id="vcEVfHxHfkmR4wFx27v9-99" value="Monitoring/Logging" style="rounded=0;whiteSpace=wrap;html=1;sketch=1;hachureGap=4;jiggle=2;curveFitting=1;fontFamily=Architects Daughter;fontSource=https%3A%2F%2Ffonts.googleapis.com%2Fcss%3Ffamily%3DArchitects%2BDaughter;fontSize=20;" vertex="1" parent="1">
          <mxGeometry x="180" y="1370" width="1070" height="60" as="geometry" />
        </mxCell>
        <mxCell id="vcEVfHxHfkmR4wFx27v9-101" value="Microservices Layer" style="text;html=1;strokeColor=none;fillColor=none;align=center;verticalAlign=middle;whiteSpace=wrap;rounded=0;fontSize=20;fontFamily=Architects Daughter;" vertex="1" parent="1">
          <mxGeometry x="376.12" y="661.9300000000001" width="60" height="30" as="geometry" />
        </mxCell>
        <mxCell id="vcEVfHxHfkmR4wFx27v9-102" value="Presentation Layer" style="text;html=1;strokeColor=none;fillColor=none;align=center;verticalAlign=middle;whiteSpace=wrap;rounded=0;fontSize=20;fontFamily=Architects Daughter;" vertex="1" parent="1">
          <mxGeometry x="80" y="610.1300000000001" width="60" height="30" as="geometry" />
        </mxCell>
        <mxCell id="vcEVfHxHfkmR4wFx27v9-103" value="Optimizations&lt;br&gt;============&lt;br&gt;- Websockets&lt;br&gt;- LoadBalancer&lt;br&gt;- Redis for caching&lt;br&gt;- MySQL Sharding&lt;br&gt;" style="text;html=1;strokeColor=none;fillColor=none;align=center;verticalAlign=middle;whiteSpace=wrap;rounded=0;fontSize=20;fontFamily=Architects Daughter;" vertex="1" parent="1">
          <mxGeometry x="80" y="1480" width="190" height="280" as="geometry" />
        </mxCell>
        <mxCell id="vcEVfHxHfkmR4wFx27v9-104" value="&amp;nbsp;Load&lt;br&gt;&lt;br&gt;&lt;br&gt;Balancer" style="rounded=0;whiteSpace=wrap;html=1;sketch=1;hachureGap=4;jiggle=2;curveFitting=1;fontFamily=Architects Daughter;fontSource=https%3A%2F%2Ffonts.googleapis.com%2Fcss%3Ffamily%3DArchitects%2BDaughter;fontSize=20;" vertex="1" parent="1">
          <mxGeometry x="200" y="610.13" width="40" height="670" as="geometry" />
        </mxCell>
        <mxCell id="vcEVfHxHfkmR4wFx27v9-105" value="Connection&lt;br&gt;Layer" style="text;html=1;strokeColor=none;fillColor=none;align=center;verticalAlign=middle;whiteSpace=wrap;rounded=0;fontSize=20;fontFamily=Architects Daughter;" vertex="1" parent="1">
          <mxGeometry x="210" y="570.0000000000001" width="60" height="30" as="geometry" />
        </mxCell>
        <mxCell id="vcEVfHxHfkmR4wFx27v9-106" value="Users&lt;br&gt;MySQL" style="shape=cylinder3;whiteSpace=wrap;html=1;boundedLbl=1;backgroundOutline=1;size=15;rounded=1;sketch=1;hachureGap=4;jiggle=2;curveFitting=1;fontFamily=Architects Daughter;fontSource=https%3A%2F%2Ffonts.googleapis.com%2Fcss%3Ffamily%3DArchitects%2BDaughter;fontSize=20;" vertex="1" parent="1">
          <mxGeometry x="1000" y="930" width="60" height="80" as="geometry" />
        </mxCell>
        <mxCell id="vcEVfHxHfkmR4wFx27v9-107" value="User Service" style="rounded=0;whiteSpace=wrap;html=1;sketch=1;hachureGap=4;jiggle=2;curveFitting=1;fontFamily=Architects Daughter;fontSource=https%3A%2F%2Ffonts.googleapis.com%2Fcss%3Ffamily%3DArchitects%2BDaughter;fontSize=20;" vertex="1" parent="1">
          <mxGeometry x="333.88" y="941.99" width="120" height="60" as="geometry" />
        </mxCell>
        <mxCell id="vcEVfHxHfkmR4wFx27v9-108" value="" style="shape=stencil(lZjbUhsxDIafJrcaWz5J15S+BzOEkiklTIAe3r7ahg1rOfunudts9NnWWd5Nunl9vHvZbji8vh3237e/dvdvj5v0ZcO8e37cHnZv9rRJt5t087A/bL8d9u/P98ffL3eT5PT0Y/9zWuH3kYtKGiaKw5+PNxTLvxdfj/JPu+devsVOvlCI6/IcqOVOXigFIM+UuT+PvREAFMraA40aApSk15gzxbQOpEIsHZDi/OYskOMACCnYITcqvdK5zmY+C5REUnsvZEpgh6JUezfUSAUANVNpPSAUGQDidWh2yLYONKZQekBIwJFaptZ7WhJFYCVbLzqgUtV1QHhe7wSY3cCRbD3uY0kjKTiSJqr9DlpgPqh6pVWIKwREPPCRgucBodr7wZaIwEpqSicPFJAPynMgLAABOsgpXRaAIsdlEh4AcCQJpOORUCydispSaQSU2SZLsyIgU3U6yJy0a4AOno4o4+qwg2mFMk4pqQcSMisPR2oUgQ7SKCQPBBTe1p7CsAOoS5oHx5kOKB8a1eaBisJbKbfBD8DTMQQKwRMwg3SoMzpXzzUl4pDUGdk1UxgSArVRDb7JTSmHkrpS7IGFHdaiadRawJma+GHDgAqCwzLCdYjJ0sCuYw8yzwnQ4Wqgtrm8n4AMO4R1anGuZgwwFTeSnYbA80CYy8qijwoox2WYZ6xTo6Zl00vrlbbSg0KjRB8aZugAstpGLO4bb8WDaGbf5WxiaiCWUqU0zGRoxJoG0T40bOpDfuDkR92ksPbZJMx9aNjkmkGHiPZ3rzRfCD6qvc62pQI38FwiFtN9BaUyUO7dbE4D6Rl8OuPLyVCG8d3HKl6/eoADbpw736c4UtWyMjhx1GpPfvkUZ+god60Kc70/X3qpFS8OVo/Rt5sL8mm+0/3fcWKheo22FoX5GmNG8fUH+8puwW6MvxAK19+yL8jbw+eV/mH39HT8IrD8338CsFfHzwfp9i8=);lineShape=1;strokeColor=default;rounded=1;sketch=1;hachureGap=4;jiggle=2;curveFitting=1;fontFamily=Architects Daughter;fontSource=https%3A%2F%2Ffonts.googleapis.com%2Fcss%3Ffamily%3DArchitects%2BDaughter;fontSize=20;" vertex="1" parent="1">
          <mxGeometry x="596.8468114022126" y="466.8552130312321" width="11.591355800530891" height="99.92613253782497" as="geometry" />
        </mxCell>
        <mxCell id="vcEVfHxHfkmR4wFx27v9-109" value="" style="shape=stencil(lVfLctswDPwaXTEkwRfOafofmYlTa+raGcd9/X2hqnJNMForN1legASwC0ADP7ztn153Q3Bvl/Pp6+7n+HzZD/xpCGE87nfn8aJPAz8O/PByOu++nE/fj8/z79enCTk9fTv9mDz8mu08hTIZBfd7fuGoxr8vPs/ww3i8gScqqYEHyrwOF2I23p1bh3umEhq8X857Hy/29kxB1vEhk2v9R4p+Hc9M0uIThbCOj4GKN/gK/CdPtTb4TAFkP3vybPAJ5Kc4G2+mUgC+2nxmElDeqn/HBl/IgftIJCcG70G8UqlafAD8EVnSt+CFIvIvlHLLtwQDVoPaFlgrLBUaSHsCV1gy764SuXIoEAPSTUeYIieoYTUopmpl4e2aQWyD0MJnHLXhqSjTUeEqlfYECTBNahDboGvFQVfyxsCTA1qQQtLWYVITOkGT2Io55aUyGw0if/BKym/BWTJB+4qv1KXVa8vBJ5S2YxSKCN8xo95TtKGezgjGCjXk1hHF+AQjH47kQRXeUWgslMHY6ZuANvJ/YW1sM0U7J47aNLKqBlihtlO6xcXGVqwKvSPpDxp0w2EyAFfqp48aIDn0402w4Pr5qQYB1KEf0GqA9NBvAGpQQND9iqF584B8/Q6jBgVQo1+SJFECJ/RbmGQ4T/o1T8kSUNewa+SNBretqdo6GWm6i0D7FKiCIynWfwG8cMu4vKlygng73TLUjlvW0puJjvq8W2h/bUjatuF97E6S7vk3HTJCoXX34QC7URevNnns3441hmOnq1emCN0bOoSFT9vYhr+57sL14f/n3ct4OMxfh7f/289BfTV/SvLjHw==);lineShape=1;strokeColor=default;rounded=1;sketch=1;hachureGap=4;jiggle=2;curveFitting=1;fontFamily=Architects Daughter;fontSource=https%3A%2F%2Ffonts.googleapis.com%2Fcss%3Ffamily%3DArchitects%2BDaughter;fontSize=20;" vertex="1" parent="1">
          <mxGeometry x="566.8554003080471" y="517.8272948020524" width="89.95819478462613" height="2.3454103958952146" as="geometry" />
        </mxCell>
        <mxCell id="vcEVfHxHfkmR4wFx27v9-110" value="" style="shape=stencil(lVnLchw3DPyavaJIPEjw7Dj/4SrL0VYUySUrif33wWSLqyVmp12+SbPsIUA0gAbnJB++PX76+nDi8u3t9eXPh3/Pn98eT/Lbifn8/Pjwen6Lv07y8SQfvry8Pvzx+vL38+fL/18/bSu3v/56+Wd7w/cLzoQqbyguPy5PhMr4/8Hvl/VP5+eb9SokI633frxebP481yv1eryeR7bHqAF7mElXexo5H6+vSnW1Z5AYWC9k6/trpa4A4NmB2FKBReHgsBXQSRo40kIl7eA0gEnSss9caQgARBDaClAyEDUtNNIOjTqiEdOoK8CpOwAEDVaAVFJAPHXiBDAYaQ2ndQV0bNKgUVZqF2JgkhVqa+DiGLwAQCVfqRHHUIFJplQSILiEdmiZfOEVA/K1SPeVGsZUQaTboL5Sw3AF6IXqGjiLUAJ6t04lmRSRQacU6bLGIbwqwOktDqtJzaAP4WI61jBSAflaJZMV4LDMxLG21ek4N5TTXSaZrwAlBqfUmdoauN7J0Q41O+110vE+wHIvcZkpdRfgTH112htMIO+Tm1eAkwAfhuU4jEoMALVENV6rwFDodbwwlY3RqIBQx/tEMgDZFD+LZ0ADdB09J3U8qcgkz10xAB057bN/XAFOCiIX70u1cox50EdOlx3AEECyMgmA48Dp6sNN8O/Tz8k9b4E6ddDZLAOQ/HHNZSAADJyIDFPOgYA7RKduGYCKZewgKdQdCqDwQZPTkdX4lLhlgCAfgn2aARVxo+aW8k6vIzLlwDWcQTbz5Qag4Fi3Q9z5MHDKqeQ4GE7qlgAO1cZGhJIBjupMu5PUSJNF6WuaAbDO8GT/bcYBTeZjNvJbAOLSLwPCh1QEFGqyPnbVmKckOuqjSbmOq9I8kli6lr7wqoBTCrmTUjQ6K+qjrWYh6gaLgAU3k0kCC1ko17Ky1SsWcTbDdNUz2OkwSZIAsikcj0zqaxy6wLoUujJVjU1DoTlLZtm6UX0FpGiMfrYCQogy8CFGvxS40MaoP2jLurIV2EZNcgKFHhd8rL4GLp4gH2Ii4QRQqLBiVtTdUKOA3rprWVbwNFon1a5zlsOxSXwWxpvRD8UhIp3KzEYWdCtgWZLF+NpA4OQ6L1wHZIc6VDhnnOAuKrspKPZEOc27SU4KLMbc8g7s8GaDLauZeAW6nWGZCu/m7kQANbhSTSYxHMGr5rpUB9xhZAVXQ6yj/Mldutp8w30PMrfDQiSLdxNTrbBilF1PpwZeL7OaXGskKSiRvitHsHfGWWjKM9iceZcEPMvZ0e1eukqrcMSNgm2rPQW+f7vf6Wk97IIlC1U889hOgRWY83ZtL+/rKygq29VKXv+T7lGyv4Z6csvqq8CWvKmElC3wWiXWJ1le5wh3tL6u8eUpfI7st7xekD2WJ0iGfSbOXzOf0b3Tr35g+Pn6+OP9a8aX89PT5WPI7e/560c8unw5kY//AQ==);lineShape=1;strokeColor=default;rounded=1;sketch=1;hachureGap=4;jiggle=2;curveFitting=1;fontFamily=Architects Daughter;fontSource=https%3A%2F%2Ffonts.googleapis.com%2Fcss%3Ffamily%3DArchitects%2BDaughter;fontSize=20;" vertex="1" parent="1">
          <mxGeometry x="712.9836611529267" y="414.2960799225946" width="27.375894601625305" height="107.8247482137624" as="geometry" />
        </mxCell>
        <mxCell id="vcEVfHxHfkmR4wFx27v9-111" value="" style="shape=stencil(lVjZctswDPwavWJ4k3hO0//ITJzaUzfOOO719wWroWyC1ip5k+VdCQQWlyb/8L5/ettNzrxfzqfvu9+H58t+8l8m5w6v+935cJGryT9O/uHldN59O59+vj7Pv9+eKrJe/Tj9qk/4M/MsmVhJzvydb2Qy5v+NrzP8eHi9gWcKVsG9XYdbR6kofPQAXygHhU+8jneRgn5+AfZ4RzErPIPjeqao7eG0jg+pea/hC3RntBRY44F/YqScNR7YE5ns4E+AT5a4j2+igvCBvO/wEpAA8PK4Hu+JEV7838dXBOWAPJ32pzgY2J+jjq+B9udCySo8im+R1zuFtxngfZPjFR+BPSW18F/945A9PKa7Bf5hS7b3vw1NUfcJnlIvULEogoxkiYA6gdhYAEEU3EsoiJEgZ5iJVY1gWCQqQSWZGAlUJ4Tcn4FNy6M1gu9NEjcERChU+rjJnRghwfXCtgZLtfq1l7ZYmZBN0il6bcudgAKRmskLYVHLGsH1oS7SH/AbrCq/Hss1aX1nOQM2KagEcuSRNqTi9RUpSWgQIbeKtRAirHkSatOfQapyRmcQJxr9BkhgckmfYSMhdNt3lDGBg44Dagw3ar4JNXQTt062EKQ5gtlCCFHpO5BBYuL2901CJFTKihZTrSRYG8VpAqMykMmppC7kcUKkXq5SmQxOCK9MMm0mW025niDVFbr104SgC5OMQRmVPmmavVyjw14ybYpdelCAci1Lzi9zT2i17T4h6kFYOnVGb/BU+nyQUczi0UT1IJnFCsiHOvtETUBnkOEqBU1A9V6KROzF5wI8dBrqjMO1UuZP7gMnA65Db5ABlzUByXucoOsbwKHHEf261HxwBxACmpjGJWNDGuMWUwkg0uOaVAnApHEPEwKKw7joyR3Ud8dNcmM1GVfVqqXPrMKCL8giPXqLMJBTzZ2ELqDWm2GQjnCXNOSHdEbNx+hRSSZ7NFAavZpYhrvz0NBt3rBH4/EMPdrj4S42nNfiPWPwJ2+Yo8JVYE4OasitZ31MbPizziZcLq5fkF4Ox+P8Aer2f/3FSW7NX6v84z8=);lineShape=1;strokeColor=default;rounded=1;sketch=1;hachureGap=4;jiggle=2;curveFitting=1;fontFamily=Architects Daughter;fontSource=https%3A%2F%2Ffonts.googleapis.com%2Fcss%3Ffamily%3DArchitects%2BDaughter;fontSize=20;" vertex="1" parent="1">
          <mxGeometry x="681.8761784442929" y="459.0389211549186" width="107.10344298458813" height="11.838001651316972" as="geometry" />
        </mxCell>
        <mxCell id="vcEVfHxHfkmR4wFx27v9-112" value="" style="shape=stencil(fZbLUsMwDEW/JluNbdmWvObxH52h0AylZUp5/T0yIW5lEu0SJyeypHsVD3jzttu8bofg3s6n4/P2c3w47wa8HUIYD7vtaTzL1YB3A948Hk/bp9Px/fAw3b9u6pv16uX4Ub/wNXHMgKFSwX1PK+gh5N+V+wnYj4croCQoUQHRA1tAAcoKSBEwmkD0CsgEWAwgQtEAFchpHeAMpHPgAhzWAUo9UDKwESEjOFaAdw6cWyeS64nCc6UXAWRwRQMIxOtAkFbrCJzAGZ0LHoruHEkEIwdfIHWdc8DWlkRrpMVEZtKBwGkAMwSjEfIYnQLqJ4xW1w3oKtVNGoCk2KlPyhCNstYihj5CMSLUNnVbklYaSVchaGlUsZABcG/qKkcjhys1t1ajHaIZpompmWo562bJJtdsAhfTN0O0wbDcOYKoc7iMnmWPyuDKPUBGmepo7Dwq4xMNuYrWNFAHtLElATp9Xyb6muWwiyBqMbbkA7C2HGUoxhQQQ6JWBs8rywF6YSQ2DfdPeWJZy28O6N/ISFbTwOv9S0be+sHNI675P5tDzxPkbtKb9akDq3Pz/IFlSRAkbWY3LyznyxBT9775pyrgdUHDPJ/+3peLy3njcdzvp+PK9fP+fCJL09kG734A);lineShape=1;strokeColor=default;rounded=1;sketch=1;hachureGap=4;jiggle=2;curveFitting=1;fontFamily=Architects Daughter;fontSource=https%3A%2F%2Ffonts.googleapis.com%2Fcss%3Ffamily%3DArchitects%2BDaughter;fontSize=20;" vertex="1" parent="1">
          <mxGeometry x="384.21635455482283" y="667.2186487597039" width="3.943354247905745" height="3.9410987922151435" as="geometry" />
        </mxCell>
      </root>
    </mxGraphModel>
  </diagram>
</mxfile>
